0
SECTION
2
HEADER
9
$INSUNITS
70
4
9
$ACADVER
1
AC1014
9
$HANDSEED
5
FFFF
0
ENDSEC
0
SECTION
2
TABLES
0
TABLE
2
VPORT
5
8
100
AcDbSymbolTable
0
ENDTAB
0
TABLE
2
LTYPE
5
5
100
AcDbSymbolTable
0
LTYPE
5
14
100
AcDbSymbolTableRecord
100
AcDbLinetypeTableRecord
2
BYBLOCK
70
0
0
LTYPE
5
15
100
AcDbSymbolTableRecord
100
AcDbLinetypeTableRecord
2
BYLAYER
70
0
0
LTYPE
5
16
100
AcDbSymbolTableRecord
100
AcDbLinetypeTableRecord
2
DASHED
70
0
3
Dashed __ __ __ __ __ __ __ __ __ __ __ __ __ _
72
65
73
2
40
0.75
49
0.5
74
0
49
-0.25
74
0
0
ENDTAB
0
TABLE
2
LAYER
5
2
100
AcDbSymbolTable
70
2
0
LAYER
5
50
100
AcDbSymbolTableRecord
100
AcDbLayerTableRecord
2
0
70
0
62
7
6
CONTINUOUS
0
ENDTAB
0
TABLE
2
STYLE
5
3
100
AcDbSymbolTable
70
1
0
STYLE
5
11
100
AcDbSymbolTableRecord
100
AcDbTextStyleTableRecord
2
STANDARD
70
0
0
ENDTAB
0
TABLE
2
VIEW
5
6
100
AcDbSymbolTable
70
0
0
ENDTAB
0
TABLE
2
UCS
5
7
100
AcDbSymbolTable
70
0
0
ENDTAB
0
TABLE
2
APPID
5
9
100
AcDbSymbolTable
70
2
0
APPID
5
12
100
AcDbSymbolTableRecord
100
AcDbRegAppTableRecord
2
ACAD
70
0
0
ENDTAB
0
TABLE
2
DIMSTYLE
5
A
100
AcDbSymbolTable
70
1
0
ENDTAB
0
TABLE
2
BLOCK_RECORD
5
1
100
AcDbSymbolTable
70
1
0
BLOCK_RECORD
5
1F
100
AcDbSymbolTableRecord
100
AcDbBlockTableRecord
2
*MODEL_SPACE
0
BLOCK_RECORD
5
1B
100
AcDbSymbolTableRecord
100
AcDbBlockTableRecord
2
*PAPER_SPACE
0
ENDTAB
0
ENDSEC
0
SECTION
2
BLOCKS
0
BLOCK
5
20
100
AcDbEntity
100
AcDbBlockBegin
2
*MODEL_SPACE
0
ENDBLK
5
21
100
AcDbEntity
100
AcDbBlockEnd
0
BLOCK
5
1C
100
AcDbEntity
100
AcDbBlockBegin
2
*PAPER_SPACE
0
ENDBLK
5
1D
100
AcDbEntity
100
AcDbBlockEnd
0
ENDSEC
0
SECTION
2
ENTITIES
0
LWPOLYLINE
5
100
100
AcDbEntity
8
0
100
AcDbPolyline
90
16
70
1
43
0.0
10
-170.50493499999567
20
40.100000000000009
42
0.41421377777792551
10
-166.00493499999999
20
35.599999999994303
10
-94.950000000000017
20
35.600000000000009
42
0.41421333333330762
10
-90.45000000000033
20
40.100000000000009
10
-90.450000000000003
20
138.18266300000002
42
0.4142142222195877
10
-94.950000000000017
20
142.68266299995815
10
-154.98395400000001
20
142.68266299999999
42
0.22155218970590795
10
-158.42957299994833
20
141.07708999995657
10
-169.45055400000001
20
127.95736400000001
42
0.17647365440036586
10
-170.50493499999726
20
125.06293599999999
10
-170.50493499999999
20
118.23645500000001
10
-170.50493499999999
20
101.23645500000002
10
-170.50493499999999
20
93.382236000000006
10
-170.50493499999999
20
85.090674000000007
10
-170.50493499999999
20
77.236455000000007
10
-170.50493499999999
20
60.236455000000007
0
CIRCLE
5
101
100
AcDbEntity
8
0
100
AcDbCircle
10
-94.950000000000017
20
138.18266299999999
30
0
40
1.5000000000000002
210
0
220
0
230
1
0
CIRCLE
5
102
100
AcDbEntity
8
0
100
AcDbCircle
10
-102.00000000000001
20
136.5
30
0
40
0.85000000000000009
210
0
220
-0
230
1
0
CIRCLE
5
103
100
AcDbEntity
8
0
100
AcDbCircle
10
-102.00000000000001
20
129.5
30
0
40
0.85000000000000009
210
0
220
-0
230
1
0
CIRCLE
5
104
100
AcDbEntity
8
0
100
AcDbCircle
10
-98.800000000000011
20
112.55000000000001
30
0
40
0.5
210
0
220
-0
230
1
0
CIRCLE
5
105
100
AcDbEntity
8
0
100
AcDbCircle
10
-106.40000000000001
20
112.55000000000001
30
0
40
0.5
210
0
220
-0
230
1
0
CIRCLE
5
106
100
AcDbEntity
8
0
100
AcDbCircle
10
-144.55000000000001
20
129.19999999999999
30
0
40
0.37500000000000006
210
0
220
-0
230
1
0
CIRCLE
5
107
100
AcDbEntity
8
0
100
AcDbCircle
10
-146.55000000000001
20
129.19999999999999
30
0
40
0.37500000000000006
210
0
220
-0
230
1
0
CIRCLE
5
108
100
AcDbEntity
8
0
100
AcDbCircle
10
-166.50493499999999
20
91.736455000000007
30
0
40
0.40000000000000008
210
0
220
-0
230
1
0
CIRCLE
5
109
100
AcDbEntity
8
0
100
AcDbCircle
10
-169.00493499999999
20
91.736455000000007
30
0
40
0.40000000000000008
210
0
220
-0
230
1
0
CIRCLE
5
110
100
AcDbEntity
8
0
100
AcDbCircle
10
-169.00493499999999
20
89.236455000000007
30
0
40
0.40000000000000008
210
0
220
-0
230
1
0
LWPOLYLINE
5
111
100
AcDbEntity
8
0
100
AcDbPolyline
90
14
70
1
43
0.0
10
-95.489554999999996
20
81.656255999995281
42
0.41421400000135306
10
-94.48955500000028
20
82.656255999999999
10
-94.489554999999754
20
83.856256000000002
42
0.026846539062960074
10
-94.505673000000016
20
84.156255999999999
10
-94.489554999999996
20
84.156255999999999
10
-94.48955500000028
20
85.656256000000013
42
0.41421399999842384
10
-95.489554999999996
20
86.656255999999999
10
-96.989554999999996
20
86.656255999999999
10
-96.989554999999967
20
86.640138000000277
42
0.026846539063050019
10
-97.289554999999993
20
86.656255999999999
10
-98.48955500000001
20
86.656255999996446
42
0.41421199999900205
10
-99.489554999999996
20
85.656256000000013
10
-99.489555000000465
20
82.656255999999999
42
0.41421200000193126
10
-98.48955500000001
20
81.656255999999999
0
CIRCLE
5
112
100
AcDbEntity
8
0
100
AcDbCircle
10
-96.989999999999995
20
73.950000000000003
30
0
40
0.5
210
0
220
-0
230
1
0
CIRCLE
5
113
100
AcDbEntity
8
0
100
AcDbCircle
10
-96.989999999999995
20
71.409999999999997
30
0
40
0.5
210
0
220
-0
230
1
0
CIRCLE
5
114
100
AcDbEntity
8
0
100
AcDbCircle
10
-96.989999999999995
20
68.870000000000005
30
0
40
0.5
210
0
220
-0
230
1
0
CIRCLE
5
115
100
AcDbEntity
8
0
100
AcDbCircle
10
-96.989999999999995
20
66.329999999999998
30
0
40
0.5
210
0
220
-0
230
1
0
CIRCLE
5
116
100
AcDbEntity
8
0
100
AcDbCircle
10
-96.989999999999995
20
63.790000000000006
30
0
40
0.5
210
0
220
-0
230
1
0
CIRCLE
5
117
100
AcDbEntity
8
0
100
AcDbCircle
10
-96.989999999999995
20
61.25
30
0
40
0.5
210
0
220
-0
230
1
0
CIRCLE
5
118
100
AcDbEntity
8
0
100
AcDbCircle
10
-96.989999999999995
20
58.710000000000008
30
0
40
0.5
210
0
220
-0
230
1
0
CIRCLE
5
119
100
AcDbEntity
8
0
100
AcDbCircle
10
-96.989999999999995
20
56.170000000000009
30
0
40
0.5
210
0
220
-0
230
1
0
LWPOLYLINE
5
120
100
AcDbEntity
8
0
100
AcDbPolyline
90
14
70
1
43
0.0
10
-95.489554999999996
20
43.356255999995277
42
0.41421400000135566
10
-94.48955500000028
20
44.356256000000009
10
-94.489554999999996
20
45.856256000000002
10
-94.505673000000158
20
45.856256000000016
42
0.026846539062966811
10
-94.489554999999996
20
46.156256000000006
10
-94.48955500000028
20
47.356256000000002
42
0.41421399999842384
10
-95.489554999999996
20
48.356256000000002
10
-98.48955500000001
20
48.356255999996449
42
0.41421199999900205
10
-99.489554999999996
20
47.356256000000002
10
-99.489555000000465
20
44.356256000000009
42
0.41421200000193381
10
-98.48955500000001
20
43.356256000000002
10
-97.289554999999993
20
43.356255999997742
42
0.026846539063048982
10
-96.989554999999996
20
43.372374000000001
10
-96.989554999999996
20
43.356256000000002
0
CIRCLE
5
121
100
AcDbEntity
8
0
100
AcDbCircle
10
-94.950000000000017
20
40.100000000000009
30
0
40
1.5000000000000002
210
0
220
0
230
1
0
LWPOLYLINE
5
122
100
AcDbEntity
8
0
100
AcDbPolyline
90
14
70
1
43
0.0
10
-160.989555
20
81.656255999995281
42
0.41421400000281505
10
-159.98955499999528
20
82.656255999999999
10
-159.98955499999528
20
85.656256000000013
42
0.41421399999988584
10
-160.989555
20
86.656255999999999
10
-162.18955500000004
20
86.65625599999926
42
0.026846539063045353
10
-162.489555
20
86.640137999999993
10
-162.489555
20
86.656255999999999
10
-163.989555
20
86.656255999996446
42
0.41421199999783148
10
-164.989555
20
85.656256000000013
10
-164.989555
20
84.156255999999999
10
-164.97343699999462
20
84.156255999999416
42
0.026839891584625793
10
-164.989555
20
83.856256000000002
10
-164.98955499999647
20
82.656255999999999
42
0.41421200000076058
10
-163.989555
20
81.656255999999999
0
CIRCLE
5
123
100
AcDbEntity
8
0
100
AcDbCircle
10
-166.50493499999999
20
86.736455000000007
30
0
40
0.40000000000000008
210
0
220
-0
230
1
0
CIRCLE
5
124
100
AcDbEntity
8
0
100
AcDbCircle
10
-169.00493499999999
20
86.736455000000007
30
0
40
0.40000000000000008
210
0
220
-0
230
1
0
LWPOLYLINE
5
125
100
AcDbEntity
8
0
100
AcDbPolyline
90
14
70
1
43
0.0
10
-160.989555
20
43.356255999995277
42
0.41421400000281766
10
-159.98955499999528
20
44.356256000000009
10
-159.98955499999528
20
47.356256000000002
42
0.41421399999988584
10
-160.989555
20
48.356256000000002
10
-163.989555
20
48.356255999996449
42
0.41421199999783148
10
-164.989555
20
47.356256000000002
10
-164.98955499999471
20
46.156256000000006
42
0.026839891584632791
10
-164.97343699999999
20
45.856256000000002
10
-164.989555
20
45.856256000000002
10
-164.98955499999647
20
44.356256000000009
42
0.41421200000076319
10
-163.989555
20
43.356256000000002
10
-162.489555
20
43.356256000000002
10
-162.48955500000008
20
43.372373999999283
42
0.026846539063044315
10
-162.18955500000004
20
43.356256000000002
0
CIRCLE
5
126
100
AcDbEntity
8
0
100
AcDbCircle
10
-166.00493499999999
20
40.100000000000009
30
0
40
1.5000000000000002
210
0
220
0
230
1
0
ENDSEC
0
SECTION
2
OBJECTS
0
DICTIONARY
5
C
100
AcDbDictionary
3
ACAD_GROUP
350
D
3
ACAD_MLINESTYLE
350
17
0
DICTIONARY
5
D
100
AcDbDictionary
0
DICTIONARY
5
1A
330
C
100
AcDbDictionary
0
DICTIONARY
5
17
100
AcDbDictionary
0
ENDSEC
0
EOF
