0
SECTION
2
HEADER
9
$INSUNITS
70
4
9
$ACADVER
1
AC1014
9
$HANDSEED
5
FFFF
0
ENDSEC
0
SECTION
2
TABLES
0
TABLE
2
VPORT
5
8
100
AcDbSymbolTable
0
ENDTAB
0
TABLE
2
LTYPE
5
5
100
AcDbSymbolTable
0
LTYPE
5
14
100
AcDbSymbolTableRecord
100
AcDbLinetypeTableRecord
2
BYBLOCK
70
0
0
LTYPE
5
15
100
AcDbSymbolTableRecord
100
AcDbLinetypeTableRecord
2
BYLAYER
70
0
0
LTYPE
5
16
100
AcDbSymbolTableRecord
100
AcDbLinetypeTableRecord
2
DASHED
70
0
3
Dashed __ __ __ __ __ __ __ __ __ __ __ __ __ _
72
65
73
2
40
0.75
49
0.5
74
0
49
-0.25
74
0
0
ENDTAB
0
TABLE
2
LAYER
5
2
100
AcDbSymbolTable
70
2
0
LAYER
5
50
100
AcDbSymbolTableRecord
100
AcDbLayerTableRecord
2
0
70
0
62
7
6
CONTINUOUS
0
ENDTAB
0
TABLE
2
STYLE
5
3
100
AcDbSymbolTable
70
1
0
STYLE
5
11
100
AcDbSymbolTableRecord
100
AcDbTextStyleTableRecord
2
STANDARD
70
0
0
ENDTAB
0
TABLE
2
VIEW
5
6
100
AcDbSymbolTable
70
0
0
ENDTAB
0
TABLE
2
UCS
5
7
100
AcDbSymbolTable
70
0
0
ENDTAB
0
TABLE
2
APPID
5
9
100
AcDbSymbolTable
70
2
0
APPID
5
12
100
AcDbSymbolTableRecord
100
AcDbRegAppTableRecord
2
ACAD
70
0
0
ENDTAB
0
TABLE
2
DIMSTYLE
5
A
100
AcDbSymbolTable
70
1
0
ENDTAB
0
TABLE
2
BLOCK_RECORD
5
1
100
AcDbSymbolTable
70
1
0
BLOCK_RECORD
5
1F
100
AcDbSymbolTableRecord
100
AcDbBlockTableRecord
2
*MODEL_SPACE
0
BLOCK_RECORD
5
1B
100
AcDbSymbolTableRecord
100
AcDbBlockTableRecord
2
*PAPER_SPACE
0
ENDTAB
0
ENDSEC
0
SECTION
2
BLOCKS
0
BLOCK
5
20
100
AcDbEntity
100
AcDbBlockBegin
2
*MODEL_SPACE
0
ENDBLK
5
21
100
AcDbEntity
100
AcDbBlockEnd
0
BLOCK
5
1C
100
AcDbEntity
100
AcDbBlockBegin
2
*PAPER_SPACE
0
ENDBLK
5
1D
100
AcDbEntity
100
AcDbBlockEnd
0
ENDSEC
0
SECTION
2
ENTITIES
0
POINT
5
100
100
AcDbEntity
8
0
100
AcDbPoint
10
-39.78019890895996
20
-30.460446294116533
30
0
0
POINT
5
101
100
AcDbEntity
8
0
100
AcDbPoint
10
-1.4801989089599576
20
-30.460446294116533
30
0
0
LWPOLYLINE
5
102
100
AcDbEntity
8
0
100
AcDbPolyline
90
14
70
1
43
0.0
10
-1.4801989089599576
20
-32.960446294116529
10
-1.480198908959955
20
-32.944328475531542
42
-0.026843673936083657
10
-1.7801989089599599
20
-32.960446294116537
10
-2.9801989089599523
20
-32.960446294116529
42
-0.41421356237309859
10
-3.9801989089599585
20
-31.960446294116529
10
-3.9801989089599643
20
-28.960446294116533
42
-0.41421356237309537
10
-2.9801989089599532
20
-27.960446294116533
10
0.019801091040042469
20
-27.960446294116537
42
-0.41421356237309359
10
1.0198010910400424
20
-28.960446294116533
10
1.019801091040107
20
-30.160446294116529
42
-0.026843673936088101
10
1.003683272455054
20
-30.460446294116533
10
1.0198010910400424
20
-30.460446294116533
10
1.0198010910400452
20
-31.960446294116529
42
-0.41421356237309659
10
0.01980109104003918
20
-32.960446294116529
0
LWPOLYLINE
5
103
100
AcDbEntity
8
0
100
AcDbPolyline
90
14
70
1
43
0.0
10
-37.28019890895996
20
-28.960446294116533
10
-37.28019890895996
20
-31.960446294116529
42
-0.41421356237308854
10
-38.28019890895996
20
-32.960446294116529
10
-39.480198908959963
20
-32.960446294116529
42
-0.026843673936087543
10
-39.78019890895996
20
-32.944328475531542
10
-39.78019890895996
20
-32.960446294116529
10
-41.280198908959953
20
-32.960446294116529
42
-0.41421356237309631
10
-42.280198908959946
20
-31.960446294116529
10
-42.28019890895996
20
-30.460446294116533
10
-42.264081090374944
20
-30.460446294116533
42
-0.026843673936088878
10
-42.28019890895996
20
-30.160446294116532
10
-42.28019890895996
20
-28.960446294116533
42
-0.41421356237309503
10
-41.280198908959953
20
-27.960446294116529
10
-38.28019890895996
20
-27.960446294116533
42
-0.41421356237310025
0
CIRCLE
5
104
100
AcDbEntity
8
0
100
AcDbCircle
10
52.546207650123137
20
-32.500000588595853
30
0
40
1.4999999999999947
210
0
220
-0
230
1
0
CIRCLE
5
105
100
AcDbEntity
8
0
100
AcDbCircle
10
-45.536454578120022
20
-32.50000058859586
30
0
40
1.4999999999999947
210
0
220
-0
230
1
0
CIRCLE
5
106
100
AcDbEntity
8
0
100
AcDbCircle
10
-45.536454578120015
20
38.554934473676802
30
0
40
1.5000000000000036
210
0
220
-0
230
1
0
LWPOLYLINE
5
107
100
AcDbEntity
8
0
100
AcDbPolyline
90
22
70
1
43
0.0
10
-50.036454578120029
20
-32.50000058859586
42
0.41421356237309442
10
-45.536454578120029
20
-37.000000588595867
10
52.546207650123137
20
-37.000000588595867
42
0.41421356237309442
10
57.046207650123151
20
-32.500000588595867
10
57.046207650123144
20
27.533953178038566
42
0.22155132577813005
10
55.440635373395168
20
30.979571867730492
10
42.320909209333891
20
42.00055316336875
42
0.17646785820527228
10
39.426481486061874
20
43.054934473676816
10
32.599999651312828
20
43.054934473676816
10
32.599999651312828
20
45.554934473676816
10
15.599999651312828
20
45.554934473676816
10
15.599999651312828
20
43.054934473676816
10
7.7457806392570738
20
43.054934473676816
10
7.7457806392570738
20
45.554934473676816
10
-0.5457813366314257
20
45.554934473676816
10
-0.5457813366314257
20
43.054934473676809
10
-8.4000003486871755
20
43.054934473676809
10
-8.4000003486871755
20
45.554934473676816
10
-25.400000348687179
20
45.554934473676816
10
-25.400000348687179
20
43.054934473676809
10
-45.536454578119994
20
43.054934473676809
42
0.41421356237309537
10
-50.036454578120015
20
38.554934473676816
0
LWPOLYLINE
5
108
100
AcDbEntity
8
0
100
AcDbPolyline
90
14
70
1
43
0.0
10
-39.78019890895996
20
37.539553705883478
10
-39.78019890895996
20
37.52343588729849
42
-0.026843673936088323
10
-39.480198908959963
20
37.539553705883478
10
-38.28019890895996
20
37.539553705883478
42
-0.41421356237308854
10
-37.28019890895996
20
36.539553705883478
10
-37.28019890895996
20
33.539553705883478
42
-0.41421356237310025
10
-38.28019890895996
20
32.539553705883478
10
-41.280198908959953
20
32.539553705883478
42
-0.41421356237309631
10
-42.280198908959946
20
33.539553705883478
10
-42.28019890895996
20
34.739553705883473
42
-0.026843673936089101
10
-42.264081090374965
20
35.039553705883478
10
-42.280198908959946
20
35.039553705883478
10
-42.280198908959946
20
36.539553705883478
42
-0.41421356237309503
10
-41.280198908959953
20
37.539553705883478
0
LWPOLYLINE
5
109
100
AcDbEntity
8
0
100
AcDbPolyline
90
14
70
1
43
0.0
10
-1.4801989089599576
20
37.539553705883478
10
0.019801091040039069
20
37.539553705883471
42
-0.41421356237309492
10
1.0198010910400421
20
36.539553705883478
10
1.0198010910400424
20
35.039553705883478
10
1.0036832724550548
20
35.039553705883471
42
-0.026843673936086988
10
1.0198010910400424
20
34.73955370588348
10
1.0198010910400439
20
33.539553705883485
42
-0.41421356237310264
10
0.019801091040039215
20
32.539553705883471
10
-2.9801989089599545
20
32.539553705883478
42
-0.41421356237309653
10
-3.9801989089599585
20
33.539553705883478
10
-3.9801989089599643
20
36.539553705883478
42
-0.41421356237309537
10
-2.9801989089599532
20
37.539553705883478
10
-1.780198908959959
20
37.539553705883492
42
-0.026843673936088878
10
-1.4801989089599594
20
37.52343588729849
0
LINE
5
110
100
AcDbEntity
8
0
100
AcDbLine
10
-25.400000348687179
20
43.054934473676809
30
0
11
-8.4000003486871755
21
43.054934473676809
31
0
0
LINE
5
111
100
AcDbEntity
8
0
100
AcDbLine
10
-0.5457813366314257
20
43.054934473676809
30
0
11
7.7457806392570738
21
43.054934473676816
31
0
0
LINE
5
112
100
AcDbEntity
8
0
100
AcDbLine
10
15.599999651312828
20
43.054934473676816
30
0
11
32.599999651312828
21
43.054934473676816
31
0
0
LINE
5
113
100
AcDbEntity
8
0
100
AcDbLine
10
-1.4801989089599576
20
-30.460446294116533
30
0
11
-11.740198908959957
21
-30.460446294116519
31
0
0
LINE
5
114
100
AcDbEntity
8
0
100
AcDbLine
10
-39.78019890895996
20
-30.460446294116533
30
0
11
-29.520198908959962
21
-30.460446294116533
31
0
0
ENDSEC
0
SECTION
2
OBJECTS
0
DICTIONARY
5
C
100
AcDbDictionary
3
ACAD_GROUP
350
D
3
ACAD_MLINESTYLE
350
17
0
DICTIONARY
5
D
100
AcDbDictionary
0
DICTIONARY
5
1A
330
C
100
AcDbDictionary
0
DICTIONARY
5
17
100
AcDbDictionary
0
ENDSEC
0
EOF
