%TF.GenerationSoftware,KiCad,Pcbnew,10.0.3*%
%TF.CreationDate,2026-06-16T21:26:16-04:00*%
%TF.ProjectId,hiro,6869726f-2e6b-4696-9361-645f70636258,rev?*%
%TF.SameCoordinates,Original*%
%TF.FileFunction,Copper,L1,Top*%
%TF.FilePolarity,Positive*%
%FSLAX46Y46*%
G04 Gerber Fmt 4.6, Leading zero omitted, Abs format (unit mm)*
G04 Created by KiCad (PCBNEW 10.0.3) date 2026-06-16 21:26:16*
%MOMM*%
%LPD*%
G01*
G04 APERTURE LIST*
G04 Aperture macros list*
%AMRoundRect*
0 Rectangle with rounded corners*
0 $1 Rounding radius*
0 $2 $3 $4 $5 $6 $7 $8 $9 X,Y pos of 4 corners*
0 Add a 4 corners polygon primitive as box body*
4,1,4,$2,$3,$4,$5,$6,$7,$8,$9,$2,$3,0*
0 Add four circle primitives for the rounded corners*
1,1,$1+$1,$2,$3*
1,1,$1+$1,$4,$5*
1,1,$1+$1,$6,$7*
1,1,$1+$1,$8,$9*
0 Add four rect primitives between the rounded corners*
20,1,$1+$1,$2,$3,$4,$5,0*
20,1,$1+$1,$4,$5,$6,$7,0*
20,1,$1+$1,$6,$7,$8,$9,0*
20,1,$1+$1,$8,$9,$2,$3,0*%
%AMFreePoly0*
4,1,15,-0.616000,0.142500,-0.283500,0.475000,0.521000,0.475000,0.557355,0.467769,0.588175,0.447175,0.608769,0.416355,0.616000,0.380000,0.616000,-0.380000,0.608769,-0.416355,0.588175,-0.447175,0.557355,-0.467769,0.521000,-0.475000,-0.283500,-0.475000,-0.616000,-0.142500,-0.616000,0.142500,-0.616000,0.142500,$1*%
G04 Aperture macros list end*
%TA.AperFunction,SMDPad,CuDef*%
%ADD10RoundRect,0.062500X0.062500X-0.350000X0.062500X0.350000X-0.062500X0.350000X-0.062500X-0.350000X0*%
%TD*%
%TA.AperFunction,SMDPad,CuDef*%
%ADD11RoundRect,0.062500X0.350000X-0.062500X0.350000X0.062500X-0.350000X0.062500X-0.350000X-0.062500X0*%
%TD*%
%TA.AperFunction,HeatsinkPad*%
%ADD12R,1.230000X1.230000*%
%TD*%
%TA.AperFunction,SMDPad,CuDef*%
%ADD13RoundRect,0.100000X-0.637500X-0.100000X0.637500X-0.100000X0.637500X0.100000X-0.637500X0.100000X0*%
%TD*%
%TA.AperFunction,SMDPad,CuDef*%
%ADD14R,1.700000X0.900000*%
%TD*%
%TA.AperFunction,SMDPad,CuDef*%
%ADD15R,1.100000X0.800000*%
%TD*%
%TA.AperFunction,ComponentPad*%
%ADD16C,1.508000*%
%TD*%
%TA.AperFunction,ComponentPad*%
%ADD17R,1.700000X1.700000*%
%TD*%
%TA.AperFunction,ComponentPad*%
%ADD18C,1.700000*%
%TD*%
%TA.AperFunction,SMDPad,CuDef*%
%ADD19RoundRect,0.237500X-0.300000X-0.237500X0.300000X-0.237500X0.300000X0.237500X-0.300000X0.237500X0*%
%TD*%
%TA.AperFunction,SMDPad,CuDef*%
%ADD20R,2.800000X2.200000*%
%TD*%
%TA.AperFunction,SMDPad,CuDef*%
%ADD21R,2.800000X2.800000*%
%TD*%
%TA.AperFunction,SMDPad,CuDef*%
%ADD22R,0.700000X1.200000*%
%TD*%
%TA.AperFunction,SMDPad,CuDef*%
%ADD23R,1.000000X0.800000*%
%TD*%
%TA.AperFunction,SMDPad,CuDef*%
%ADD24R,1.000000X1.200000*%
%TD*%
%TA.AperFunction,SMDPad,CuDef*%
%ADD25R,1.000000X2.800000*%
%TD*%
%TA.AperFunction,SMDPad,CuDef*%
%ADD26R,1.300000X1.900000*%
%TD*%
%TA.AperFunction,SMDPad,CuDef*%
%ADD27RoundRect,0.237500X0.237500X-0.300000X0.237500X0.300000X-0.237500X0.300000X-0.237500X-0.300000X0*%
%TD*%
%TA.AperFunction,ComponentPad*%
%ADD28RoundRect,0.250000X0.350000X0.625000X-0.350000X0.625000X-0.350000X-0.625000X0.350000X-0.625000X0*%
%TD*%
%TA.AperFunction,ComponentPad*%
%ADD29O,1.200000X1.750000*%
%TD*%
%TA.AperFunction,ComponentPad*%
%ADD30C,2.000000*%
%TD*%
%TA.AperFunction,SMDPad,CuDef*%
%ADD31RoundRect,0.237500X0.300000X0.237500X-0.300000X0.237500X-0.300000X-0.237500X0.300000X-0.237500X0*%
%TD*%
%TA.AperFunction,SMDPad,CuDef*%
%ADD32RoundRect,0.237500X-0.237500X0.300000X-0.237500X-0.300000X0.237500X-0.300000X0.237500X0.300000X0*%
%TD*%
%TA.AperFunction,SMDPad,CuDef*%
%ADD33RoundRect,0.095000X-0.921000X-0.380000X0.921000X-0.380000X0.921000X0.380000X-0.921000X0.380000X0*%
%TD*%
%TA.AperFunction,SMDPad,CuDef*%
%ADD34RoundRect,0.095000X0.921000X0.380000X-0.921000X0.380000X-0.921000X-0.380000X0.921000X-0.380000X0*%
%TD*%
%TA.AperFunction,SMDPad,CuDef*%
%ADD35FreePoly0,0.000000*%
%TD*%
%TA.AperFunction,SMDPad,CuDef*%
%ADD36FreePoly0,180.000000*%
%TD*%
%TA.AperFunction,SMDPad,CuDef*%
%ADD37C,1.700000*%
%TD*%
%TA.AperFunction,SMDPad,CuDef*%
%ADD38RoundRect,0.110000X0.440000X-1.140000X0.440000X1.140000X-0.440000X1.140000X-0.440000X-1.140000X0*%
%TD*%
%TA.AperFunction,SMDPad,CuDef*%
%ADD39RoundRect,0.250000X1.150000X1.000000X-1.150000X1.000000X-1.150000X-1.000000X1.150000X-1.000000X0*%
%TD*%
%TA.AperFunction,SMDPad,CuDef*%
%ADD40RoundRect,0.237500X0.237500X-0.250000X0.237500X0.250000X-0.237500X0.250000X-0.237500X-0.250000X0*%
%TD*%
%TA.AperFunction,ViaPad*%
%ADD41C,0.600000*%
%TD*%
%TA.AperFunction,Conductor*%
%ADD42C,0.200000*%
%TD*%
G04 APERTURE END LIST*
D10*
%TO.P,U3,1,DIN_1*%
%TO.N,/DIN1*%
X144750000Y-134800000D03*
%TO.P,U3,2,GAIN_SLOT_2*%
%TO.N,unconnected-(U3-GAIN_SLOT-Pad2)*%
X145250000Y-134800000D03*
%TO.P,U3,3,GND_3*%
%TO.N,GND*%
X145750000Y-134800000D03*
%TO.P,U3,4,~{SD_MODE}_4*%
%TO.N,/SD_MODE*%
X146250000Y-134800000D03*
D11*
%TO.P,U3,5,NC_5*%
%TO.N,unconnected-(U3-NC-Pad5)*%
X146937500Y-134112500D03*
%TO.P,U3,6,NC_6*%
%TO.N,unconnected-(U3-NC-Pad6)*%
X146937500Y-133612500D03*
%TO.P,U3,7,VDD_7*%
%TO.N,+3.3V*%
X146937500Y-133112500D03*
%TO.P,U3,8,VDD_8*%
X146937500Y-132612500D03*
D10*
%TO.P,U3,9,OUTP_9*%
%TO.N,Net-(U3-OUTP)*%
X146250000Y-131925000D03*
%TO.P,U3,10,OUTN_10*%
%TO.N,Net-(U3-OUTN)*%
X145750000Y-131925000D03*
%TO.P,U3,11,GND_11*%
%TO.N,GND*%
X145250000Y-131925000D03*
%TO.P,U3,12,NC_12*%
%TO.N,unconnected-(U3-NC-Pad12)*%
X144750000Y-131925000D03*
D11*
%TO.P,U3,13,NC_13*%
%TO.N,unconnected-(U3-NC-Pad13)*%
X144062500Y-132612500D03*
%TO.P,U3,14,LRCLK_14*%
%TO.N,/LCK*%
X144062500Y-133112500D03*
%TO.P,U3,15,GND_15*%
%TO.N,GND*%
X144062500Y-133612500D03*
%TO.P,U3,16,BCLK_16*%
%TO.N,/BCK*%
X144062500Y-134112500D03*
D12*
%TO.P,U3,17,PAD_17*%
%TO.N,GND*%
X145500000Y-133362500D03*
%TD*%
D13*
%TO.P,U2,1,CPVDD_1*%
%TO.N,GND*%
X112087500Y-135275000D03*
%TO.P,U2,2,CAPP_2*%
%TO.N,Net-(U2-CAPP)*%
X112087500Y-135925000D03*
%TO.P,U2,3,CPGND_3*%
%TO.N,GND*%
X112087500Y-136575000D03*
%TO.P,U2,4,CAPM_4*%
%TO.N,Net-(U2-CAPM)*%
X112087500Y-137225000D03*
%TO.P,U2,5,VNEG_5*%
%TO.N,Net-(U2-VNEG)*%
X112087500Y-137875000D03*
%TO.P,U2,6,OUTL_6*%
%TO.N,Net-(U2-OUTL)*%
X112087500Y-138525000D03*
%TO.P,U2,7,OUTR_7*%
%TO.N,Net-(U2-OUTR)*%
X112087500Y-139175000D03*
%TO.P,U2,8,AVDD_8*%
%TO.N,Net-(U2-AVDD)*%
X112087500Y-139825000D03*
%TO.P,U2,9,AGND_9*%
%TO.N,GND*%
X112087500Y-140475000D03*
%TO.P,U2,10,DEMP_10*%
X112087500Y-141125000D03*
%TO.P,U2,11,FLT_11*%
X117812500Y-141125000D03*
%TO.P,U2,12,SCK_12*%
X117812500Y-140475000D03*
%TO.P,U2,13,BCK_13*%
%TO.N,/BCK*%
X117812500Y-139825000D03*
%TO.P,U2,14,DIN_14*%
%TO.N,/DIN2*%
X117812500Y-139175000D03*
%TO.P,U2,15,LRCK_15*%
%TO.N,/LCK*%
X117812500Y-138525000D03*
%TO.P,U2,16,FMT_16*%
%TO.N,GND*%
X117812500Y-137875000D03*
%TO.P,U2,17,XSMT_17*%
%TO.N,+3.3V*%
X117812500Y-137225000D03*
%TO.P,U2,18,LDOO_18*%
%TO.N,Net-(U2-LDOO)*%
X117812500Y-136575000D03*
%TO.P,U2,19,DGND_19*%
%TO.N,GND*%
X117812500Y-135925000D03*
%TO.P,U2,20,DVDD_20*%
%TO.N,Net-(U2-DVDD)*%
X117812500Y-135275000D03*
%TD*%
D14*
%TO.P,S1,1,1_1*%
%TO.N,GND*%
X167554935Y-67036455D03*
%TO.P,S1,2,2_2*%
%TO.N,/SW1*%
X167554935Y-70436455D03*
D15*
%TO.P,S1,3,3_3*%
%TO.N,GND*%
X165914935Y-68736455D03*
%TD*%
D16*
%TO.P,LS1,M*%
%TO.N,Net-(U3-OUTN)*%
X105300000Y-100000000D03*
%TO.P,LS1,P*%
%TO.N,Net-(U3-OUTP)*%
X97700000Y-100000000D03*
%TD*%
D17*
%TO.P,J3,1,Pin_1_1*%
%TO.N,+3.3V*%
X96990000Y-56170000D03*
D18*
%TO.P,J3,2,Pin_2_2*%
%TO.N,GND*%
X96990000Y-58710000D03*
%TO.P,J3,3,Pin_3_3*%
%TO.N,/MOSI*%
X96990000Y-61250000D03*
%TO.P,J3,4,Pin_4_4*%
%TO.N,/SCK*%
X96990000Y-63790000D03*
%TO.P,J3,5,Pin_5_5*%
%TO.N,/CS*%
X96990000Y-66330000D03*
%TO.P,J3,6,Pin_6_6*%
%TO.N,/DC*%
X96990000Y-68870000D03*
%TO.P,J3,7,Pin_7_7*%
%TO.N,/LCD_RST*%
X96990000Y-71410000D03*
%TO.P,J3,8,Pin_8_8*%
%TO.N,/LCD_BL*%
X96990000Y-73950000D03*
%TD*%
D19*
%TO.P,C5,1*%
%TO.N,Net-(U2-LDOO)*%
X119650000Y-136575000D03*
%TO.P,C5,2*%
%TO.N,GND*%
X121375000Y-136575000D03*
%TD*%
D20*
%TO.P,J2,R*%
%TO.N,Net-(U2-OUTR)*%
X98300000Y-135600000D03*
%TO.P,J2,S*%
%TO.N,GND*%
X105700000Y-137600000D03*
D21*
%TO.P,J2,T*%
%TO.N,Net-(U2-OUTL)*%
X105700000Y-128200000D03*
%TD*%
D14*
%TO.P,S2,1,1_1*%
%TO.N,GND*%
X167554935Y-108036455D03*
%TO.P,S2,2,2_2*%
%TO.N,/SW2*%
X167554935Y-111436455D03*
D15*
%TO.P,S2,3,3_3*%
%TO.N,GND*%
X165914935Y-109736455D03*
%TD*%
D22*
%TO.P,J1,1,DAT2_1*%
%TO.N,unconnected-(J1-DAT2-Pad1)*%
X147955000Y-52790000D03*
%TO.P,J1,2,DAT3/CD_2*%
%TO.N,/CS1*%
X149055000Y-52790000D03*
%TO.P,J1,3,CMD_3*%
%TO.N,/MOSI*%
X150155000Y-52790000D03*
%TO.P,J1,4,VDD_4*%
%TO.N,+3.3V*%
X151255000Y-52790000D03*
%TO.P,J1,5,CLK_5*%
%TO.N,/SCK*%
X152355000Y-52790000D03*
%TO.P,J1,6,VSS_6*%
%TO.N,GND*%
X153455000Y-52790000D03*
%TO.P,J1,7,DAT0_7*%
%TO.N,/MISO*%
X154555000Y-52790000D03*
%TO.P,J1,8,DAT1_8*%
%TO.N,unconnected-(J1-DAT1-Pad8)*%
X155655000Y-52790000D03*
%TO.P,J1,9,DET_B_9*%
%TO.N,unconnected-(J1-DET_B-Pad9)*%
X156605000Y-52790000D03*
D23*
%TO.P,J1,10,DET_A_10*%
%TO.N,unconnected-(J1-DET_A-Pad10)*%
X157555000Y-42290000D03*
D24*
%TO.P,J1,SH,SHIELD_SH*%
%TO.N,GND*%
X157555000Y-48490000D03*
D25*
X157555000Y-38140000D03*
D24*
X146405000Y-52790000D03*
D26*
X144055000Y-37690000D03*
%TD*%
D27*
%TO.P,C4,1*%
%TO.N,+3.3V*%
X122000000Y-134862500D03*
%TO.P,C4,2*%
%TO.N,GND*%
X122000000Y-133137500D03*
%TD*%
D28*
%TO.P,J4,1,Pin_1_1*%
%TO.N,Net-(J4-Pin_1)*%
X146550000Y-129200000D03*
D29*
%TO.P,J4,2,Pin_2_2*%
%TO.N,Net-(J4-Pin_2)*%
X144550000Y-129200000D03*
%TD*%
D30*
%TO.P,SW1,A,A_A*%
%TO.N,/ENCA*%
X169004935Y-91736455D03*
%TO.P,SW1,B,B_B*%
%TO.N,/ENCB*%
X169004935Y-89236455D03*
%TO.P,SW1,C,C_C*%
%TO.N,GND*%
X169004935Y-86736455D03*
%TO.P,SW1,S1,S1_S1*%
%TO.N,/SW3*%
X166504935Y-91736455D03*
%TO.P,SW1,S2,S2_S2*%
%TO.N,GND*%
X166504935Y-86736455D03*
%TD*%
D31*
%TO.P,C6,1*%
%TO.N,Net-(U2-VNEG)*%
X110225000Y-137825000D03*
%TO.P,C6,2*%
%TO.N,GND*%
X108500000Y-137825000D03*
%TD*%
D32*
%TO.P,C1,1*%
%TO.N,Net-(U2-CAPP)*%
X110312500Y-134512500D03*
%TO.P,C1,2*%
%TO.N,Net-(U2-CAPM)*%
X110312500Y-136237500D03*
%TD*%
D33*
%TO.P,U1,1,GPIO1_A0_D0_1*%
%TO.N,/ENCA*%
X140611012Y-140137823D03*
%TO.P,U1,2,GPIO2_A1_D1_2*%
%TO.N,/ENCB*%
X140611012Y-137597823D03*
%TO.P,U1,3,GPIO3_A2_D2_3*%
%TO.N,/SW1*%
X140611012Y-135057823D03*
%TO.P,U1,4,GPIO4_A3_D3_4*%
%TO.N,/SW3*%
X140611012Y-132517823D03*
%TO.P,U1,5,GPIO5_A4_D4_SDA_5*%
%TO.N,/LCD_RST*%
X140611012Y-129977823D03*
%TO.P,U1,6,GPIO6_A5_D5_SCL_6*%
%TO.N,/LCD_BL*%
X140611012Y-127437823D03*
%TO.P,U1,7,GPIO43_D6_TX_7*%
%TO.N,unconnected-(U1-GPIO43_D6_TX-Pad7)*%
X140611012Y-124897823D03*
D34*
%TO.P,U1,8,GPIO44_D7_RX_8*%
%TO.N,/DC*%
X124101012Y-124897823D03*
%TO.P,U1,9,GPIO7_A8_D8_SCK_9*%
%TO.N,/SCK*%
X124101012Y-127437823D03*
%TO.P,U1,10,GPIO8_A9_D9_MISO_10*%
%TO.N,/CS*%
X124101012Y-129977823D03*
%TO.P,U1,11,GPIO9_A10_D10_MOSI_11*%
%TO.N,/DIN1*%
X124101012Y-132517823D03*
%TO.P,U1,12,3V3_12*%
%TO.N,+3.3V*%
X124101012Y-135057823D03*
%TO.P,U1,13,GND_13*%
%TO.N,GND*%
X124101012Y-137597823D03*
%TO.P,U1,14,VBUS_14*%
%TO.N,unconnected-(U1-VBUS-Pad14)*%
X124101012Y-140137823D03*
D35*
%TO.P,U1,15,GPIO38_DVP_VSYNC_I2S_SD_15*%
%TO.N,/DIN2*%
X141011012Y-138867823D03*
%TO.P,U1,16,GPIO39_CAM_SCL_I2S_SCK_16*%
%TO.N,/BCK*%
X141011012Y-136327823D03*
%TO.P,U1,17,GPIO40_CAM_SDA_I2S_WS_17*%
%TO.N,/LCK*%
X141011012Y-133787823D03*
%TO.P,U1,18,GPIO41_PDM_DATA_RX1_18*%
%TO.N,unconnected-(U1-GPIO41_PDM_DATA_RX1-Pad18)*%
X141011012Y-131247823D03*
%TO.P,U1,19,GPIO42_PDM_CLK_TX1_19*%
%TO.N,unconnected-(U1-GPIO42_PDM_CLK_TX1-Pad19)*%
X141011012Y-128707823D03*
%TO.P,U1,20,GPIO10_XMCLK_ADC_BAT_20*%
%TO.N,unconnected-(U1-GPIO10_XMCLK_ADC_BAT-Pad20)*%
X141011012Y-126167823D03*
D36*
%TO.P,U1,21,GPIO11_DVP_Y8_SPI_MOSI1_21*%
%TO.N,/MOSI*%
X123701012Y-126167823D03*
%TO.P,U1,22,GPIO12_DVP_Y7_SPI_MISO1_22*%
%TO.N,/MISO*%
X123701012Y-128707823D03*
%TO.P,U1,23,GPIO13_DVP_PCLK_SPI_SCK1_23*%
%TO.N,/CS1*%
X123701012Y-131247823D03*
D37*
%TO.P,U1,24,GPIO41_MTDI_PDM_DATA_RX1_24*%
%TO.N,unconnected-(U1-GPIO41_MTDI_PDM_DATA_RX1-Pad24)*%
X133626012Y-141153823D03*
%TO.P,U1,25,GPIO40_MTDO_CAM_SDA_I2S_WS_25*%
%TO.N,unconnected-(U1-GPIO40_MTDO_CAM_SDA_I2S_WS-Pad25)*%
X131086012Y-141153823D03*
%TO.P,U1,26,EN_26*%
%TO.N,unconnected-(U1-EN-Pad26)*%
X133626012Y-138613823D03*
%TO.P,U1,27,GND1_27*%
%TO.N,GND*%
X131086012Y-138613823D03*
%TO.P,U1,28,GPIO42_MTMS_PDM_CLK_TX1_28*%
%TO.N,/SW2*%
X133626012Y-136073823D03*
%TO.P,U1,29,GPIO39_MTCK_CAM_SCL_I2S_SCK_29*%
%TO.N,unconnected-(U1-GPIO39_MTCK_CAM_SCL_I2S_SCK-Pad29)*%
X131086012Y-136073823D03*
%TO.P,U1,30,GPIO19_ESP_USB_D-_30*%
%TO.N,unconnected-(U1-GPIO19_ESP_USB_D--Pad30)*%
X133626012Y-133533823D03*
%TO.P,U1,31,GPIO20_ESP_USB_D+_31*%
%TO.N,unconnected-(U1-GPIO20_ESP_USB_D+-Pad31)*%
X131086012Y-133533823D03*
D38*
%TO.P,U1,32,VBAT_32*%
%TO.N,Net-(J4-Pin_2)*%
X133350000Y-127000000D03*
%TO.P,U1,33,GND2_33*%
%TO.N,Net-(J4-Pin_1)*%
X131350000Y-127000000D03*
D39*
%TO.P,U1,34,PAD_34*%
%TO.N,unconnected-(U1-PAD-Pad34)*%
X131231012Y-130642823D03*
%TD*%
D32*
%TO.P,C3,1*%
%TO.N,GND*%
X118212500Y-132212500D03*
%TO.P,C3,2*%
%TO.N,Net-(U2-DVDD)*%
X118212500Y-133937500D03*
%TD*%
D40*
%TO.P,R1,1*%
%TO.N,+3.3V*%
X146500000Y-138125000D03*
%TO.P,R1,2*%
%TO.N,/SD_MODE*%
X146500000Y-136300000D03*
%TD*%
D19*
%TO.P,C2,1*%
%TO.N,GND*%
X108500000Y-139825000D03*
%TO.P,C2,2*%
%TO.N,Net-(U2-AVDD)*%
X110225000Y-139825000D03*
%TD*%
D41*
%TO.N,/DIN1*%
X144625000Y-134800000D03*
X138500000Y-134000000D03*
%TO.N,GND*%
X131086012Y-138613823D03*
X144000000Y-54500000D03*
X142500000Y-134000000D03*
X167000000Y-105500000D03*
X111500000Y-134500000D03*
X126500000Y-137000000D03*
%TO.N,+3.3V*%
X154000000Y-50500000D03*
X148250000Y-111650000D03*
X148593872Y-133093872D03*
X148595126Y-136095126D03*
X151000000Y-55500000D03*
X124101012Y-135057823D03*
X142500000Y-139000000D03*
%TO.N,Net-(U3-OUTP)*%
X146300003Y-131000000D03*
%TO.N,Net-(U3-OUTN)*%
X145500000Y-131000000D03*
%TO.N,/DIN2*%
X135500000Y-140500000D03*
X116500000Y-139000000D03*
%TO.N,/SW1*%
X139000000Y-136000000D03*
X167554935Y-70436455D03*
%TO.N,/SCK*%
X117600000Y-83500000D03*
%TO.N,/DC*%
X122500000Y-86000000D03*
%TO.N,/MOSI*%
X118000000Y-82000000D03*
%TO.N,/SW2*%
X167554935Y-111436455D03*
X136500000Y-134500000D03*
%TO.N,/CS1*%
X149000000Y-54500000D03*
X151000000Y-58500000D03*
%TO.N,Net-(J4-Pin_1)*%
X131350000Y-127000000D03*
%TO.N,Net-(J4-Pin_2)*%
X133350000Y-127000000D03*
%TO.N,/ENCB*%
X167500000Y-94500000D03*
%TO.N,/LCD_RST*%
X142000000Y-120500000D03*
%TO.N,/LCD_BL*%
X141000000Y-120500000D03*
%TD*%
%TO.N,/DIN1*%
D42*
X124235012Y-132383823D02*
X136883823Y-132383823D01*
X124101012Y-132517823D02*
X124235012Y-132383823D01*
X136883823Y-132383823D02*
X138500000Y-134000000D01*
%TO.N,GND*%
X145250000Y-131925000D02*
X145250000Y-133112500D01*
X108500000Y-137825000D02*
X108500000Y-139825000D01*
X119137500Y-133137500D02*
X118212500Y-132212500D01*
X111962500Y-140600000D02*
X112087500Y-140475000D01*
X144062500Y-133612500D02*
X145250000Y-133612500D01*
X113125000Y-136274999D02*
X113125000Y-135575001D01*
X157255000Y-53690000D02*
X158055000Y-52890000D01*
X159000000Y-47045000D02*
X159000000Y-39585000D01*
X167554935Y-108036455D02*
X167554935Y-106054935D01*
X125417012Y-134511577D02*
X125417012Y-136281823D01*
X121375000Y-136575000D02*
X123078189Y-136575000D01*
X153355000Y-51890000D02*
X153455000Y-51990000D01*
X112087500Y-135275000D02*
X112087500Y-135087500D01*
X144695000Y-54500000D02*
X144000000Y-54500000D01*
X167554935Y-108036455D02*
X167554935Y-108096455D01*
X115900000Y-139248529D02*
X115900000Y-138751471D01*
X157505000Y-38190000D02*
X144555000Y-38190000D01*
X117812500Y-135925000D02*
X117075001Y-135925000D01*
X145750000Y-133612500D02*
X145500000Y-133362500D01*
X113125000Y-135575001D02*
X112824999Y-135275000D01*
X117075001Y-137875000D02*
X117812500Y-137875000D01*
X167554935Y-67036455D02*
X167554935Y-63989935D01*
X146405000Y-52790000D02*
X144695000Y-54500000D01*
X157555000Y-48490000D02*
X159000000Y-47045000D01*
X153455000Y-53240000D02*
X153905000Y-53690000D01*
X123078189Y-136575000D02*
X124101012Y-137597823D01*
X153455000Y-51990000D02*
X153455000Y-52790000D01*
X157555000Y-38140000D02*
X157505000Y-38190000D01*
X147305000Y-51890000D02*
X153355000Y-51890000D01*
X125188258Y-134282823D02*
X125417012Y-134511577D01*
X167554935Y-108096455D02*
X165914935Y-109736455D01*
X109275000Y-140600000D02*
X111962500Y-140600000D01*
X145750000Y-134800000D02*
X145750000Y-133612500D01*
X116775000Y-137574999D02*
X117075001Y-137875000D01*
X116775000Y-136225001D02*
X116775000Y-137574999D01*
X153455000Y-52790000D02*
X153455000Y-53240000D01*
X122000000Y-133137500D02*
X119137500Y-133137500D01*
X144555000Y-38190000D02*
X144055000Y-37690000D01*
X117075001Y-135925000D02*
X116775000Y-135624999D01*
X158055000Y-52890000D02*
X158055000Y-48990000D01*
X105700000Y-137600000D02*
X108275000Y-137600000D01*
X124101012Y-137597823D02*
X125902177Y-137597823D01*
X153905000Y-53690000D02*
X157255000Y-53690000D01*
X115900000Y-138751471D02*
X116776471Y-137875000D01*
X125417012Y-136281823D02*
X124101012Y-137597823D01*
X108500000Y-139825000D02*
X109275000Y-140600000D01*
X116775000Y-135624999D02*
X116775000Y-133650000D01*
X116776471Y-137875000D02*
X117812500Y-137875000D01*
X117126471Y-140475000D02*
X115900000Y-139248529D01*
X145250000Y-133112500D02*
X145500000Y-133362500D01*
X125902177Y-137597823D02*
X126500000Y-137000000D01*
X112824999Y-136575000D02*
X113125000Y-136274999D01*
X167554935Y-106054935D02*
X167000000Y-105500000D01*
X167554935Y-63989935D02*
X157255000Y-53690000D01*
X158055000Y-48990000D02*
X157555000Y-48490000D01*
X165914935Y-68736455D02*
X165914935Y-68676455D01*
X123145323Y-134282823D02*
X125188258Y-134282823D01*
X112087500Y-136575000D02*
X112824999Y-136575000D01*
X116775000Y-133650000D02*
X118212500Y-132212500D01*
X112087500Y-135087500D02*
X111500000Y-134500000D01*
X165914935Y-68676455D02*
X167554935Y-67036455D01*
X122000000Y-133137500D02*
X123145323Y-134282823D01*
X146405000Y-52790000D02*
X147305000Y-51890000D01*
X117075001Y-135925000D02*
X116775000Y-136225001D01*
X108275000Y-137600000D02*
X108500000Y-137825000D01*
X112824999Y-135275000D02*
X112087500Y-135275000D01*
X142887500Y-133612500D02*
X142500000Y-134000000D01*
X159000000Y-39585000D02*
X157555000Y-38140000D01*
X117812500Y-140475000D02*
X117126471Y-140475000D01*
X117812500Y-141125000D02*
X117812500Y-140475000D01*
X112087500Y-140475000D02*
X112087500Y-141125000D01*
X144062500Y-133612500D02*
X142887500Y-133612500D01*
X145250000Y-133612500D02*
X145500000Y-133362500D01*
X117812500Y-141125000D02*
X112087500Y-141125000D01*
%TO.N,/SD_MODE*%
X146500000Y-135050000D02*
X146250000Y-134800000D01*
X146500000Y-136087500D02*
X146500000Y-135050000D01*
%TO.N,+3.3V*%
X146937500Y-132612500D02*
X146937500Y-133112500D01*
X120537500Y-135687500D02*
X121362500Y-134862500D01*
X151255000Y-52790000D02*
X151255000Y-55245000D01*
X124101012Y-135057823D02*
X122195323Y-135057823D01*
X146500000Y-137912500D02*
X146777752Y-137912500D01*
X122195323Y-135057823D02*
X122000000Y-134862500D01*
X117937500Y-137350000D02*
X120179222Y-137350000D01*
X146956128Y-133093872D02*
X146937500Y-133112500D01*
X120179222Y-137350000D02*
X120537500Y-136991722D01*
X146565252Y-138125000D02*
X146500000Y-138125000D01*
X117812500Y-137225000D02*
X117937500Y-137350000D01*
X148593872Y-133093872D02*
X146956128Y-133093872D01*
X148250000Y-131300000D02*
X148250000Y-111650000D01*
X146937500Y-132612500D02*
X148250000Y-131300000D01*
X148595126Y-136095126D02*
X146565252Y-138125000D01*
X120537500Y-136991722D02*
X120537500Y-135687500D01*
X151255000Y-55245000D02*
X151000000Y-55500000D01*
X121362500Y-134862500D02*
X122000000Y-134862500D01*
%TO.N,Net-(U3-OUTP)*%
X146250000Y-131050003D02*
X146300003Y-131000000D01*
X146250000Y-131925000D02*
X146250000Y-131050003D01*
%TO.N,Net-(U3-OUTN)*%
X145750000Y-131925000D02*
X145750000Y-131250000D01*
X145750000Y-131250000D02*
X145500000Y-131000000D01*
%TO.N,/LCK*%
X136342766Y-137463823D02*
X140018766Y-133787823D01*
X117812500Y-138525000D02*
X125975000Y-138525000D01*
X140018766Y-133787823D02*
X141011012Y-133787823D01*
X141878581Y-133112500D02*
X141203258Y-133787823D01*
X125975000Y-138525000D02*
X127036177Y-137463823D01*
X144062500Y-133112500D02*
X141878581Y-133112500D01*
X127036177Y-137463823D02*
X136342766Y-137463823D01*
X141203258Y-133787823D02*
X141011012Y-133787823D01*
%TO.N,/BCK*%
X144062500Y-134112500D02*
X141847177Y-136327823D01*
X119137177Y-139362823D02*
X130208666Y-139362823D01*
X118675000Y-139825000D02*
X119137177Y-139362823D01*
X140018766Y-136327823D02*
X141011012Y-136327823D01*
X141847177Y-136327823D02*
X141011012Y-136327823D01*
X130609666Y-139763823D02*
X136582766Y-139763823D01*
X117812500Y-139825000D02*
X118675000Y-139825000D01*
X130208666Y-139362823D02*
X130609666Y-139763823D01*
X136582766Y-139763823D02*
X140018766Y-136327823D01*
%TO.N,Net-(U2-CAPP)*%
X110312500Y-134887499D02*
X111350001Y-135925000D01*
X111350001Y-135925000D02*
X112087500Y-135925000D01*
X110312500Y-134512500D02*
X110312500Y-134887499D01*
%TO.N,Net-(U2-CAPM)*%
X110312500Y-136237500D02*
X111300000Y-137225000D01*
X111300000Y-137225000D02*
X112087500Y-137225000D01*
%TO.N,Net-(U2-VNEG)*%
X112037500Y-137825000D02*
X112087500Y-137875000D01*
X110225000Y-137825000D02*
X112037500Y-137825000D01*
%TO.N,Net-(U2-OUTL)*%
X113525000Y-135406544D02*
X106318456Y-128200000D01*
X112087500Y-138525000D02*
X112824999Y-138525000D01*
X112824999Y-138525000D02*
X113525000Y-137824999D01*
X106318456Y-128200000D02*
X105700000Y-128200000D01*
X113525000Y-137824999D02*
X113525000Y-135406544D01*
%TO.N,Net-(U2-OUTR)*%
X109387500Y-138741722D02*
X110445944Y-138741722D01*
X109387500Y-137408278D02*
X109387500Y-138741722D01*
X110879222Y-139175000D02*
X112087500Y-139175000D01*
X110445944Y-138741722D02*
X110879222Y-139175000D01*
X98600000Y-135300000D02*
X107279222Y-135300000D01*
X98300000Y-135600000D02*
X98600000Y-135300000D01*
X107279222Y-135300000D02*
X109387500Y-137408278D01*
%TO.N,Net-(U2-AVDD)*%
X110225000Y-139825000D02*
X112087500Y-139825000D01*
%TO.N,/DIN2*%
X116675000Y-139175000D02*
X117812500Y-139175000D01*
X116500000Y-139000000D02*
X116675000Y-139175000D01*
X138044452Y-138867823D02*
X136412275Y-140500000D01*
X141011012Y-138867823D02*
X138044452Y-138867823D01*
X136412275Y-140500000D02*
X135500000Y-140500000D01*
%TO.N,Net-(U2-LDOO)*%
X117812500Y-136575000D02*
X119650000Y-136575000D01*
%TO.N,Net-(U2-DVDD)*%
X118212500Y-134875000D02*
X117812500Y-135275000D01*
X118212500Y-133937500D02*
X118212500Y-134875000D01*
%TO.N,/SW1*%
X139668835Y-136000000D02*
X139000000Y-136000000D01*
X140611012Y-135057823D02*
X139668835Y-136000000D01*
%TO.N,/SCK*%
X148600000Y-102451599D02*
X148600000Y-59334315D01*
X118500000Y-122426425D02*
X123016398Y-126942823D01*
X123016398Y-126942823D02*
X124108776Y-126942823D01*
X152355000Y-55579315D02*
X152355000Y-52790000D01*
X124108776Y-126942823D02*
X148600000Y-102451599D01*
X117600000Y-83600000D02*
X117600000Y-83500000D01*
X118500000Y-84500000D02*
X117600000Y-83600000D01*
X118500000Y-122426425D02*
X118500000Y-84500000D01*
X148600000Y-59334315D02*
X152355000Y-55579315D01*
X124101012Y-127437823D02*
X123085012Y-127437823D01*
%TO.N,/CS*%
X124101012Y-129977823D02*
X123085012Y-129977823D01*
X115000000Y-121892811D02*
X115000000Y-84340000D01*
X115000000Y-84340000D02*
X96990000Y-66330000D01*
X123085012Y-129977823D02*
X115000000Y-121892811D01*
%TO.N,/DC*%
X121500000Y-87000000D02*
X122500000Y-86000000D01*
X121500000Y-122296811D02*
X121500000Y-87000000D01*
X124101012Y-124897823D02*
X121500000Y-122296811D01*
%TO.N,/MOSI*%
X120000000Y-84000000D02*
X118000000Y-82000000D01*
X120000000Y-87000000D02*
X120000000Y-84000000D01*
X120000000Y-87000000D02*
X150155000Y-56845000D01*
X150155000Y-56845000D02*
X150155000Y-52790000D01*
X120000000Y-122659057D02*
X120000000Y-87000000D01*
X123701012Y-126167823D02*
X123508766Y-126167823D01*
X123508766Y-126167823D02*
X120000000Y-122659057D01*
%TO.N,/MISO*%
X153705000Y-51490000D02*
X154555000Y-52340000D01*
X117000000Y-80495000D02*
X146005000Y-51490000D01*
X154555000Y-52340000D02*
X154555000Y-52790000D01*
X123701012Y-128707823D02*
X123508766Y-128707823D01*
X117000000Y-122199057D02*
X117000000Y-80495000D01*
X123508766Y-128707823D02*
X117000000Y-122199057D01*
X146005000Y-51490000D02*
X153705000Y-51490000D01*
%TO.N,/SW2*%
X133626012Y-136073823D02*
X135199835Y-134500000D01*
X135199835Y-134500000D02*
X136500000Y-134500000D01*
%TO.N,/CS1*%
X149000000Y-59500000D02*
X150000000Y-59500000D01*
X149000000Y-106941081D02*
X149000000Y-59500000D01*
X149000000Y-52845000D02*
X149055000Y-52790000D01*
X124693258Y-131247823D02*
X149000000Y-106941081D01*
X150000000Y-59500000D02*
X151000000Y-58500000D01*
X149000000Y-54500000D02*
X149000000Y-52845000D01*
X123701012Y-131247823D02*
X124693258Y-131247823D01*
%TO.N,/ENCA*%
X145862177Y-140137823D02*
X169004935Y-116995065D01*
X169004935Y-116995065D02*
X169004935Y-91736455D01*
X140611012Y-140137823D02*
X145862177Y-140137823D01*
%TO.N,/ENCB*%
X147995126Y-136100000D02*
X147995126Y-135846596D01*
X147007626Y-137087500D02*
X147995126Y-136100000D01*
X147995126Y-135846596D02*
X165000000Y-118841722D01*
X142137335Y-137087500D02*
X147007626Y-137087500D01*
X140611012Y-137597823D02*
X141086012Y-137122823D01*
X140611012Y-137597823D02*
X141627012Y-137597823D01*
X141627012Y-137597823D02*
X142137335Y-137087500D01*
X165000000Y-97000000D02*
X167500000Y-94500000D01*
X165000000Y-118841722D02*
X165000000Y-97000000D01*
%TO.N,/SW3*%
X166504935Y-91736455D02*
X139000000Y-119241390D01*
X139000000Y-130906811D02*
X140611012Y-132517823D01*
X139000000Y-119241390D02*
X139000000Y-130906811D01*
%TO.N,/LCD_RST*%
X141627012Y-129977823D02*
X140611012Y-129977823D01*
X142000000Y-120500000D02*
X142327012Y-120827012D01*
X142327012Y-120827012D02*
X142327012Y-129277823D01*
X142327012Y-129277823D02*
X141627012Y-129977823D01*
%TO.N,/LCD_BL*%
X141000000Y-120500000D02*
X141927012Y-121427012D01*
X141927012Y-127137823D02*
X141627012Y-127437823D01*
X141627012Y-127437823D02*
X140611012Y-127437823D01*
X141927012Y-121427012D02*
X141927012Y-127137823D01*
%TD*%
%TA.AperFunction,Conductor*%
%TO.N,+3.3V*%
G36*
X143118578Y-36120185D02*
G01*
X143164333Y-36172989D01*
X143174277Y-36242147D01*
X143145252Y-36305703D01*
X143125850Y-36323766D01*
X143047455Y-36382452D01*
X143047452Y-36382455D01*
X142961206Y-36497664D01*
X142961202Y-36497671D01*
X142910908Y-36632517D01*
X142904501Y-36692116D01*
X142904501Y-36692123D01*
X142904500Y-36692135D01*
X142904500Y-38687870D01*
X142904501Y-38687876D01*
X142910908Y-38747483D01*
X142961202Y-38882328D01*
X142961206Y-38882335D01*
X143047452Y-38997544D01*
X143047455Y-38997547D01*
X143162664Y-39083793D01*
X143162671Y-39083797D01*
X143297517Y-39134091D01*
X143297516Y-39134091D01*
X143304444Y-39134835D01*
X143357127Y-39140500D01*
X144752872Y-39140499D01*
X144812483Y-39134091D01*
X144947331Y-39083796D01*
X145062546Y-38997546D01*
X145148796Y-38882331D01*
X145152960Y-38871165D01*
X145194829Y-38815234D01*
X145260293Y-38790816D01*
X145269141Y-38790500D01*
X156031000Y-38790500D01*
X156098039Y-38810185D01*
X156143794Y-38862989D01*
X156155000Y-38914500D01*
X156155000Y-46066000D01*
X156135315Y-46133039D01*
X156082511Y-46178794D01*
X156031000Y-46190000D01*
X147455000Y-46190000D01*
X147455000Y-47790000D01*
X156155000Y-47790000D01*
X156155000Y-46614000D01*
X156174685Y-46546961D01*
X156227489Y-46501206D01*
X156279000Y-46490000D01*
X156855000Y-46490000D01*
X156855000Y-43312190D01*
X156874685Y-43245151D01*
X156927489Y-43199396D01*
X156992255Y-43188901D01*
X157007127Y-43190500D01*
X158102872Y-43190499D01*
X158162483Y-43184091D01*
X158232169Y-43158099D01*
X158301858Y-43153116D01*
X158363181Y-43186600D01*
X158396666Y-43247923D01*
X158399500Y-43274282D01*
X158399500Y-46744902D01*
X158379815Y-46811941D01*
X158363181Y-46832583D01*
X158166681Y-47029083D01*
X158105358Y-47062568D01*
X158035666Y-47057584D01*
X157979733Y-47015712D01*
X157955316Y-46950248D01*
X157955000Y-46941402D01*
X157955000Y-44290000D01*
X157205000Y-44290000D01*
X157205000Y-47265500D01*
X157185315Y-47332539D01*
X157132511Y-47378294D01*
X157081002Y-47389500D01*
X157007130Y-47389500D01*
X157007123Y-47389501D01*
X156947516Y-47395908D01*
X156812671Y-47446202D01*
X156812664Y-47446206D01*
X156697455Y-47532452D01*
X156697452Y-47532455D01*
X156611206Y-47647664D01*
X156611202Y-47647671D01*
X156560908Y-47782517D01*
X156554501Y-47842116D01*
X156554500Y-47842135D01*
X156554500Y-49137870D01*
X156554501Y-49137876D01*
X156560908Y-49197483D01*
X156611202Y-49332328D01*
X156611206Y-49332335D01*
X156697452Y-49447544D01*
X156697455Y-49447547D01*
X156812664Y-49533793D01*
X156812671Y-49533797D01*
X156857618Y-49550561D01*
X156947517Y-49584091D01*
X157007127Y-49590500D01*
X157081000Y-49590499D01*
X157148038Y-49610183D01*
X157193794Y-49662986D01*
X157205000Y-49714499D01*
X157205000Y-51573185D01*
X157185315Y-51640224D01*
X157132511Y-51685979D01*
X157067746Y-51696475D01*
X157062483Y-51695909D01*
X157002873Y-51689500D01*
X157002865Y-51689500D01*
X156207129Y-51689500D01*
X156207120Y-51689501D01*
X156143248Y-51696367D01*
X156116742Y-51696367D01*
X156112483Y-51695909D01*
X156052873Y-51689500D01*
X156052865Y-51689500D01*
X155257129Y-51689500D01*
X155257123Y-51689501D01*
X155197516Y-51695908D01*
X155148332Y-51714253D01*
X155078640Y-51719237D01*
X155061667Y-51714253D01*
X155012482Y-51695908D01*
X155012483Y-51695908D01*
X154952883Y-51689501D01*
X154952881Y-51689500D01*
X154952873Y-51689500D01*
X154952865Y-51689500D01*
X154805097Y-51689500D01*
X154738058Y-51669815D01*
X154717416Y-51653181D01*
X154192590Y-51128355D01*
X154192588Y-51128352D01*
X154073717Y-51009481D01*
X154073716Y-51009480D01*
X153986904Y-50959360D01*
X153986904Y-50959359D01*
X153986900Y-50959358D01*
X153936785Y-50930423D01*
X153784057Y-50889499D01*
X153625943Y-50889499D01*
X153618347Y-50889499D01*
X153618331Y-50889500D01*
X145925940Y-50889500D01*
X145885019Y-50900464D01*
X145885019Y-50900465D01*
X145847751Y-50910451D01*
X145773214Y-50930423D01*
X145773209Y-50930426D01*
X145636290Y-51009475D01*
X145636282Y-51009481D01*
X116519481Y-80126282D01*
X116519479Y-80126285D01*
X116469361Y-80213094D01*
X116469359Y-80213096D01*
X116440425Y-80263209D01*
X116440424Y-80263210D01*
X116440423Y-80263215D01*
X116399499Y-80415943D01*
X116399499Y-80415945D01*
X116399499Y-80584046D01*
X116399500Y-80584059D01*
X116399500Y-122119996D01*
X116399499Y-122120000D01*
X116399499Y-122143716D01*
X116389628Y-122177328D01*
X116379814Y-122210751D01*
X116379812Y-122210751D01*
X116379812Y-122210755D01*
X116349031Y-122237425D01*
X116327010Y-122256506D01*
X116327009Y-122256506D01*
X116327007Y-122256508D01*
X116292499Y-122261468D01*
X116257852Y-122266450D01*
X116257849Y-122266448D01*
X116257848Y-122266449D01*
X116234488Y-122255780D01*
X116194296Y-122237425D01*
X116187818Y-122231393D01*
X115636819Y-121680394D01*
X115603334Y-121619071D01*
X115600500Y-121592713D01*
X115600500Y-84260946D01*
X115600499Y-84260939D01*
X115584305Y-84200500D01*
X115559577Y-84108215D01*
X115525644Y-84049442D01*
X115480520Y-83971284D01*
X115368716Y-83859480D01*
X115368715Y-83859479D01*
X115364385Y-83855149D01*
X115364374Y-83855139D01*
X98323757Y-66814522D01*
X98290272Y-66753199D01*
X98293507Y-66688523D01*
X98307246Y-66646243D01*
X98340500Y-66436287D01*
X98340500Y-66223713D01*
X98307246Y-66013757D01*
X98241557Y-65811588D01*
X98145051Y-65622184D01*
X98145049Y-65622181D01*
X98145048Y-65622179D01*
X98020109Y-65450213D01*
X97869786Y-65299890D01*
X97697820Y-65174951D01*
X97697115Y-65174591D01*
X97689054Y-65170485D01*
X97638259Y-65122512D01*
X97621463Y-65054692D01*
X97643999Y-64988556D01*
X97689054Y-64949515D01*
X97697816Y-64945051D01*
X97719789Y-64929086D01*
X97869786Y-64820109D01*
X97869788Y-64820106D01*
X97869792Y-64820104D01*
X98020104Y-64669792D01*
X98020106Y-64669788D01*
X98020109Y-64669786D01*
X98145048Y-64497820D01*
X98145047Y-64497820D01*
X98145051Y-64497816D01*
X98241557Y-64308412D01*
X98307246Y-64106243D01*
X98340500Y-63896287D01*
X98340500Y-63683713D01*
X98307246Y-63473757D01*
X98241557Y-63271588D01*
X98145051Y-63082184D01*
X98145049Y-63082181D01*
X98145048Y-63082179D01*
X98020109Y-62910213D01*
X97869786Y-62759890D01*
X97697820Y-62634951D01*
X97697115Y-62634591D01*
X97689054Y-62630485D01*
X97638259Y-62582512D01*
X97621463Y-62514692D01*
X97643999Y-62448556D01*
X97689054Y-62409515D01*
X97697816Y-62405051D01*
X97719789Y-62389086D01*
X97869786Y-62280109D01*
X97869788Y-62280106D01*
X97869792Y-62280104D01*
X98020104Y-62129792D01*
X98020106Y-62129788D01*
X98020109Y-62129786D01*
X98145048Y-61957820D01*
X98145047Y-61957820D01*
X98145051Y-61957816D01*
X98241557Y-61768412D01*
X98307246Y-61566243D01*
X98340500Y-61356287D01*
X98340500Y-61143713D01*
X98307246Y-60933757D01*
X98241557Y-60731588D01*
X98145051Y-60542184D01*
X98145049Y-60542181D01*
X98145048Y-60542179D01*
X98020109Y-60370213D01*
X97869786Y-60219890D01*
X97697820Y-60094951D01*
X97697115Y-60094591D01*
X97689054Y-60090485D01*
X97638259Y-60042512D01*
X97621463Y-59974692D01*
X97643999Y-59908556D01*
X97689054Y-59869515D01*
X97697816Y-59865051D01*
X97719789Y-59849086D01*
X97869786Y-59740109D01*
X97869788Y-59740106D01*
X97869792Y-59740104D01*
X98020104Y-59589792D01*
X98020106Y-59589788D01*
X98020109Y-59589786D01*
X98145048Y-59417820D01*
X98145047Y-59417820D01*
X98145051Y-59417816D01*
X98241557Y-59228412D01*
X98307246Y-59026243D01*
X98340500Y-58816287D01*
X98340500Y-58603713D01*
X98307246Y-58393757D01*
X98241557Y-58191588D01*
X98145051Y-58002184D01*
X98145049Y-58002181D01*
X98145048Y-58002179D01*
X98020109Y-57830213D01*
X97906181Y-57716285D01*
X97872696Y-57654962D01*
X97877680Y-57585270D01*
X97919552Y-57529337D01*
X97950529Y-57512422D01*
X98082086Y-57463354D01*
X98082093Y-57463350D01*
X98197187Y-57377190D01*
X98197190Y-57377187D01*
X98283350Y-57262093D01*
X98283354Y-57262086D01*
X98333596Y-57127379D01*
X98333598Y-57127372D01*
X98339999Y-57067844D01*
X98340000Y-57067827D01*
X98340000Y-56420000D01*
X97423012Y-56420000D01*
X97455925Y-56362993D01*
X97490000Y-56235826D01*
X97490000Y-56104174D01*
X97455925Y-55977007D01*
X97423012Y-55920000D01*
X98340000Y-55920000D01*
X98340000Y-55272172D01*
X98339999Y-55272155D01*
X98333598Y-55212627D01*
X98333596Y-55212620D01*
X98283354Y-55077913D01*
X98283350Y-55077906D01*
X98197190Y-54962812D01*
X98197187Y-54962809D01*
X98082093Y-54876649D01*
X98082086Y-54876645D01*
X97947379Y-54826403D01*
X97947372Y-54826401D01*
X97887844Y-54820000D01*
X97240000Y-54820000D01*
X97240000Y-55736988D01*
X97182993Y-55704075D01*
X97055826Y-55670000D01*
X96924174Y-55670000D01*
X96797007Y-55704075D01*
X96740000Y-55736988D01*
X96740000Y-54820000D01*
X96092155Y-54820000D01*
X96032627Y-54826401D01*
X96032620Y-54826403D01*
X95897913Y-54876645D01*
X95897906Y-54876649D01*
X95782812Y-54962809D01*
X95782809Y-54962812D01*
X95696649Y-55077906D01*
X95696645Y-55077913D01*
X95646403Y-55212620D01*
X95646401Y-55212627D01*
X95640000Y-55272155D01*
X95640000Y-55920000D01*
X96556988Y-55920000D01*
X96524075Y-55977007D01*
X96490000Y-56104174D01*
X96490000Y-56235826D01*
X96524075Y-56362993D01*
X96556988Y-56420000D01*
X95640000Y-56420000D01*
X95640000Y-57067844D01*
X95646401Y-57127372D01*
X95646403Y-57127379D01*
X95696645Y-57262086D01*
X95696649Y-57262093D01*
X95782809Y-57377187D01*
X95782812Y-57377190D01*
X95897906Y-57463350D01*
X95897913Y-57463354D01*
X96029470Y-57512422D01*
X96085404Y-57554293D01*
X96109821Y-57619758D01*
X96094969Y-57688031D01*
X96073819Y-57716285D01*
X95959889Y-57830215D01*
X95834951Y-58002179D01*
X95738444Y-58191585D01*
X95672753Y-58393760D01*
X95639500Y-58603713D01*
X95639500Y-58816286D01*
X95670227Y-59010292D01*
X95672754Y-59026243D01*
X95732262Y-59209390D01*
X95738444Y-59228414D01*
X95834951Y-59417820D01*
X95959890Y-59589786D01*
X96110213Y-59740109D01*
X96282182Y-59865050D01*
X96290946Y-59869516D01*
X96341742Y-59917491D01*
X96358536Y-59985312D01*
X96335998Y-60051447D01*
X96290946Y-60090484D01*
X96282182Y-60094949D01*
X96110213Y-60219890D01*
X95959890Y-60370213D01*
X95834951Y-60542179D01*
X95738444Y-60731585D01*
X95672753Y-60933760D01*
X95639500Y-61143713D01*
X95639500Y-61356286D01*
X95672753Y-61566239D01*
X95738444Y-61768414D01*
X95834951Y-61957820D01*
X95959890Y-62129786D01*
X96110213Y-62280109D01*
X96282182Y-62405050D01*
X96290946Y-62409516D01*
X96341742Y-62457491D01*
X96358536Y-62525312D01*
X96335998Y-62591447D01*
X96290946Y-62630484D01*
X96282182Y-62634949D01*
X96110213Y-62759890D01*
X95959890Y-62910213D01*
X95834951Y-63082179D01*
X95738444Y-63271585D01*
X95672753Y-63473760D01*
X95639500Y-63683713D01*
X95639500Y-63896286D01*
X95666854Y-64068996D01*
X95672754Y-64106243D01*
X95715782Y-64238670D01*
X95738444Y-64308414D01*
X95834951Y-64497820D01*
X95959890Y-64669786D01*
X96110213Y-64820109D01*
X96282182Y-64945050D01*
X96290946Y-64949516D01*
X96341742Y-64997491D01*
X96358536Y-65065312D01*
X96335998Y-65131447D01*
X96290946Y-65170484D01*
X96282182Y-65174949D01*
X96110213Y-65299890D01*
X95959890Y-65450213D01*
X95834951Y-65622179D01*
X95738444Y-65811585D01*
X95672753Y-66013760D01*
X95639500Y-66223713D01*
X95639500Y-66436286D01*
X95672753Y-66646239D01*
X95672753Y-66646241D01*
X95672754Y-66646243D01*
X95727431Y-66814522D01*
X95738444Y-66848414D01*
X95834951Y-67037820D01*
X95959890Y-67209786D01*
X96110213Y-67360109D01*
X96282182Y-67485050D01*
X96290946Y-67489516D01*
X96341742Y-67537491D01*
X96358536Y-67605312D01*
X96335998Y-67671447D01*
X96290946Y-67710484D01*
X96282182Y-67714949D01*
X96110213Y-67839890D01*
X95959890Y-67990213D01*
X95834951Y-68162179D01*
X95738444Y-68351585D01*
X95672753Y-68553760D01*
X95639500Y-68763713D01*
X95639500Y-68976286D01*
X95672450Y-69184328D01*
X95672754Y-69186243D01*
X95735315Y-69378786D01*
X95738444Y-69388414D01*
X95834951Y-69577820D01*
X95959890Y-69749786D01*
X96110213Y-69900109D01*
X96282182Y-70025050D01*
X96290946Y-70029516D01*
X96341742Y-70077491D01*
X96358536Y-70145312D01*
X96335998Y-70211447D01*
X96290946Y-70250484D01*
X96282182Y-70254949D01*
X96110213Y-70379890D01*
X95959890Y-70530213D01*
X95834951Y-70702179D01*
X95738444Y-70891585D01*
X95672753Y-71093760D01*
X95639500Y-71303713D01*
X95639500Y-71516286D01*
X95672753Y-71726239D01*
X95738444Y-71928414D01*
X95834951Y-72117820D01*
X95959890Y-72289786D01*
X96110213Y-72440109D01*
X96282182Y-72565050D01*
X96290946Y-72569516D01*
X96341742Y-72617491D01*
X96358536Y-72685312D01*
X96335998Y-72751447D01*
X96290946Y-72790484D01*
X96282182Y-72794949D01*
X96110213Y-72919890D01*
X95959890Y-73070213D01*
X95834951Y-73242179D01*
X95738444Y-73431585D01*
X95672753Y-73633760D01*
X95639500Y-73843713D01*
X95639500Y-74056286D01*
X95672753Y-74266239D01*
X95738444Y-74468414D01*
X95834951Y-74657820D01*
X95959890Y-74829786D01*
X96110213Y-74980109D01*
X96282179Y-75105048D01*
X96282181Y-75105049D01*
X96282184Y-75105051D01*
X96471588Y-75201557D01*
X96673757Y-75267246D01*
X96883713Y-75300500D01*
X96883714Y-75300500D01*
X97096286Y-75300500D01*
X97096287Y-75300500D01*
X97306243Y-75267246D01*
X97508412Y-75201557D01*
X97697816Y-75105051D01*
X97719789Y-75089086D01*
X97869786Y-74980109D01*
X97869788Y-74980106D01*
X97869792Y-74980104D01*
X98020104Y-74829792D01*
X98020106Y-74829788D01*
X98020109Y-74829786D01*
X98145048Y-74657820D01*
X98145047Y-74657820D01*
X98145051Y-74657816D01*
X98241557Y-74468412D01*
X98307246Y-74266243D01*
X98340500Y-74056287D01*
X98340500Y-73843713D01*
X98307246Y-73633757D01*
X98241557Y-73431588D01*
X98145051Y-73242184D01*
X98145049Y-73242181D01*
X98145048Y-73242179D01*
X98020109Y-73070213D01*
X97869786Y-72919890D01*
X97697820Y-72794951D01*
X97697115Y-72794591D01*
X97689054Y-72790485D01*
X97638259Y-72742512D01*
X97621463Y-72674692D01*
X97643999Y-72608556D01*
X97689054Y-72569515D01*
X97697816Y-72565051D01*
X97719789Y-72549086D01*
X97869786Y-72440109D01*
X97869788Y-72440106D01*
X97869792Y-72440104D01*
X98020104Y-72289792D01*
X98020106Y-72289788D01*
X98020109Y-72289786D01*
X98145048Y-72117820D01*
X98145047Y-72117820D01*
X98145051Y-72117816D01*
X98241557Y-71928412D01*
X98307246Y-71726243D01*
X98340500Y-71516287D01*
X98340500Y-71303713D01*
X98307246Y-71093757D01*
X98241557Y-70891588D01*
X98145051Y-70702184D01*
X98145049Y-70702181D01*
X98145048Y-70702179D01*
X98020109Y-70530213D01*
X97869786Y-70379890D01*
X97697820Y-70254951D01*
X97697115Y-70254591D01*
X97689054Y-70250485D01*
X97638259Y-70202512D01*
X97621463Y-70134692D01*
X97643999Y-70068556D01*
X97689054Y-70029515D01*
X97697816Y-70025051D01*
X97719789Y-70009086D01*
X97869786Y-69900109D01*
X97869788Y-69900106D01*
X97869792Y-69900104D01*
X98020104Y-69749792D01*
X98020106Y-69749788D01*
X98020109Y-69749786D01*
X98145048Y-69577820D01*
X98145047Y-69577820D01*
X98145051Y-69577816D01*
X98241557Y-69388412D01*
X98307246Y-69186243D01*
X98340500Y-68976287D01*
X98340500Y-68829097D01*
X98360185Y-68762058D01*
X98412989Y-68716303D01*
X98482147Y-68706359D01*
X98545703Y-68735384D01*
X98552181Y-68741416D01*
X114363181Y-84552416D01*
X114396666Y-84613739D01*
X114399500Y-84640097D01*
X114399500Y-121806141D01*
X114399499Y-121806159D01*
X114399499Y-121971865D01*
X114399498Y-121971865D01*
X114440423Y-122124596D01*
X114469358Y-122174711D01*
X114469359Y-122174715D01*
X114469360Y-122174715D01*
X114502082Y-122231393D01*
X114519479Y-122261525D01*
X114519481Y-122261528D01*
X114638349Y-122380396D01*
X114638355Y-122380401D01*
X122548193Y-130290240D01*
X122581678Y-130351563D01*
X122582167Y-130353921D01*
X122584512Y-130365810D01*
X122584513Y-130396857D01*
X122599839Y-130513280D01*
X122626124Y-130576739D01*
X122628508Y-130588823D01*
X122626410Y-130611850D01*
X122628882Y-130634842D01*
X122622264Y-130657381D01*
X122622171Y-130658405D01*
X122621838Y-130658831D01*
X122621415Y-130660274D01*
X122599839Y-130712364D01*
X122584512Y-130828787D01*
X122584512Y-131666860D01*
X122599837Y-131783276D01*
X122599838Y-131783279D01*
X122621415Y-131835372D01*
X122623956Y-131859018D01*
X122630849Y-131881784D01*
X122627985Y-131896501D01*
X122628882Y-131904842D01*
X122626119Y-131916760D01*
X122624156Y-131923656D01*
X122599839Y-131982366D01*
X122593284Y-132032151D01*
X122590797Y-132040894D01*
X122576808Y-132063067D01*
X122566202Y-132087041D01*
X122558462Y-132092145D01*
X122553516Y-132099986D01*
X122529763Y-132111075D01*
X122507877Y-132125511D01*
X122498606Y-132125621D01*
X122490206Y-132129543D01*
X122464226Y-132126029D01*
X122438012Y-132126341D01*
X122432537Y-132124666D01*
X122387753Y-132109826D01*
X122387751Y-132109825D01*
X122286678Y-132099500D01*
X121713330Y-132099500D01*
X121713312Y-132099501D01*
X121612247Y-132109825D01*
X121448484Y-132164092D01*
X121448481Y-132164093D01*
X121301648Y-132254661D01*
X121179660Y-132376649D01*
X121179657Y-132376653D01*
X121117086Y-132478097D01*
X121065138Y-132524822D01*
X121011548Y-132537000D01*
X119437598Y-132537000D01*
X119408157Y-132528355D01*
X119378171Y-132521832D01*
X119373155Y-132518077D01*
X119370559Y-132517315D01*
X119349917Y-132500681D01*
X119224318Y-132375082D01*
X119190833Y-132313759D01*
X119187999Y-132287401D01*
X119187999Y-131863330D01*
X119187998Y-131863313D01*
X119177674Y-131762247D01*
X119165783Y-131726362D01*
X119123408Y-131598484D01*
X119032840Y-131451650D01*
X118910850Y-131329660D01*
X118764016Y-131239092D01*
X118600253Y-131184826D01*
X118600251Y-131184825D01*
X118499178Y-131174500D01*
X117925830Y-131174500D01*
X117925812Y-131174501D01*
X117824747Y-131184825D01*
X117660984Y-131239092D01*
X117660981Y-131239093D01*
X117514148Y-131329661D01*
X117392161Y-131451648D01*
X117301593Y-131598481D01*
X117301591Y-131598486D01*
X117289876Y-131633839D01*
X117247326Y-131762247D01*
X117247326Y-131762248D01*
X117247325Y-131762248D01*
X117237000Y-131863315D01*
X117237000Y-132287402D01*
X117217315Y-132354441D01*
X117200681Y-132375083D01*
X116294481Y-133281282D01*
X116294475Y-133281290D01*
X116258107Y-133344283D01*
X116258107Y-133344285D01*
X116215423Y-133418214D01*
X116205459Y-133455402D01*
X116174499Y-133570943D01*
X116174499Y-133570945D01*
X116174499Y-133739046D01*
X116174500Y-133739059D01*
X116174500Y-135538329D01*
X116174499Y-135538347D01*
X116174499Y-135704053D01*
X116174498Y-135704053D01*
X116215423Y-135856785D01*
X116219011Y-135862999D01*
X116235484Y-135930899D01*
X116219014Y-135986994D01*
X116215425Y-135993210D01*
X116215423Y-135993213D01*
X116194032Y-136073046D01*
X116174499Y-136145944D01*
X116174499Y-136145946D01*
X116174499Y-136314047D01*
X116174500Y-136314060D01*
X116174500Y-137495938D01*
X116174499Y-137495942D01*
X116174499Y-137535478D01*
X116174499Y-137576375D01*
X116154814Y-137643415D01*
X116154808Y-137643419D01*
X116138180Y-137664055D01*
X115419481Y-138382753D01*
X115419479Y-138382755D01*
X115415594Y-138389485D01*
X115389561Y-138434577D01*
X115340423Y-138519686D01*
X115299499Y-138672414D01*
X115299499Y-138672416D01*
X115299499Y-138840517D01*
X115299500Y-138840530D01*
X115299500Y-139161859D01*
X115299499Y-139161877D01*
X115299499Y-139327583D01*
X115299498Y-139327583D01*
X115299499Y-139327586D01*
X115340423Y-139480314D01*
X115352368Y-139501004D01*
X115354394Y-139504512D01*
X115354395Y-139504514D01*
X115419477Y-139617241D01*
X115419481Y-139617246D01*
X115538349Y-139736114D01*
X115538355Y-139736119D01*
X116115055Y-140312819D01*
X116148540Y-140374142D01*
X116143556Y-140443834D01*
X116101684Y-140499767D01*
X116036220Y-140524184D01*
X116027374Y-140524500D01*
X113449499Y-140524500D01*
X113382460Y-140504815D01*
X113336705Y-140452011D01*
X113325499Y-140400500D01*
X113325499Y-140335638D01*
X113319867Y-140292855D01*
X113310044Y-140218238D01*
X113301434Y-140197454D01*
X113293965Y-140127986D01*
X113301435Y-140102545D01*
X113307740Y-140087323D01*
X113310044Y-140081762D01*
X113325500Y-139964361D01*
X113325499Y-139685640D01*
X113310044Y-139568238D01*
X113301434Y-139547454D01*
X113293965Y-139477986D01*
X113301435Y-139452545D01*
X113310044Y-139431762D01*
X113325500Y-139314361D01*
X113325499Y-139035640D01*
X113315206Y-138957447D01*
X113314646Y-138953193D01*
X113325412Y-138884158D01*
X113349901Y-138849331D01*
X113883506Y-138315727D01*
X113883511Y-138315723D01*
X113893714Y-138305519D01*
X113893716Y-138305519D01*
X114005520Y-138193715D01*
X114070873Y-138080520D01*
X114084577Y-138056784D01*
X114125501Y-137904056D01*
X114125501Y-137745942D01*
X114125501Y-137738347D01*
X114125500Y-137738329D01*
X114125500Y-135327488D01*
X114125500Y-135327487D01*
X114121351Y-135312000D01*
X114084577Y-135174759D01*
X114038228Y-135094481D01*
X114005520Y-135037828D01*
X113893716Y-134926024D01*
X113893715Y-134926023D01*
X113889385Y-134921693D01*
X113889374Y-134921683D01*
X107636818Y-128669127D01*
X107603333Y-128607804D01*
X107600499Y-128581446D01*
X107600499Y-126752129D01*
X107600498Y-126752123D01*
X107600497Y-126752116D01*
X107594091Y-126692517D01*
X107571931Y-126633104D01*
X107543797Y-126557671D01*
X107543793Y-126557664D01*
X107457547Y-126442455D01*
X107457544Y-126442452D01*
X107342335Y-126356206D01*
X107342328Y-126356202D01*
X107207482Y-126305908D01*
X107207483Y-126305908D01*
X107147883Y-126299501D01*
X107147881Y-126299500D01*
X107147873Y-126299500D01*
X107147864Y-126299500D01*
X104252129Y-126299500D01*
X104252123Y-126299501D01*
X104192516Y-126305908D01*
X104057671Y-126356202D01*
X104057664Y-126356206D01*
X103942455Y-126442452D01*
X103942452Y-126442455D01*
X103856206Y-126557664D01*
X103856202Y-126557671D01*
X103805908Y-126692517D01*
X103799791Y-126749422D01*
X103799501Y-126752123D01*
X103799500Y-126752135D01*
X103799500Y-129647870D01*
X103799501Y-129647876D01*
X103805908Y-129707483D01*
X103856202Y-129842328D01*
X103856206Y-129842335D01*
X103942452Y-129957544D01*
X103942455Y-129957547D01*
X104057664Y-130043793D01*
X104057671Y-130043797D01*
X104192517Y-130094091D01*
X104192516Y-130094091D01*
X104199444Y-130094835D01*
X104252127Y-130100500D01*
X107147872Y-130100499D01*
X107207483Y-130094091D01*
X107246313Y-130079607D01*
X107316005Y-130074622D01*
X107377328Y-130108107D01*
X110532040Y-133262819D01*
X110565525Y-133324142D01*
X110560541Y-133393834D01*
X110518669Y-133449767D01*
X110453205Y-133474184D01*
X110444359Y-133474500D01*
X110025830Y-133474500D01*
X110025812Y-133474501D01*
X109924747Y-133484825D01*
X109760984Y-133539092D01*
X109760981Y-133539093D01*
X109614148Y-133629661D01*
X109492161Y-133751648D01*
X109401593Y-133898481D01*
X109401591Y-133898486D01*
X109401255Y-133899500D01*
X109347326Y-134062247D01*
X109347326Y-134062248D01*
X109347325Y-134062248D01*
X109337000Y-134163315D01*
X109337000Y-134861669D01*
X109337001Y-134861687D01*
X109347325Y-134962752D01*
X109378072Y-135055539D01*
X109401592Y-135126516D01*
X109489931Y-135269737D01*
X109492161Y-135273351D01*
X109506129Y-135287319D01*
X109539614Y-135348642D01*
X109534630Y-135418334D01*
X109506129Y-135462681D01*
X109492161Y-135476648D01*
X109401593Y-135623481D01*
X109401591Y-135623486D01*
X109394310Y-135645458D01*
X109347326Y-135787247D01*
X109347326Y-135787248D01*
X109347325Y-135787248D01*
X109337000Y-135888315D01*
X109337000Y-136209181D01*
X109317315Y-136276220D01*
X109264511Y-136321975D01*
X109195353Y-136331919D01*
X109131797Y-136302894D01*
X109125319Y-136296862D01*
X107766812Y-134938355D01*
X107766810Y-134938352D01*
X107647939Y-134819481D01*
X107647938Y-134819480D01*
X107550703Y-134763342D01*
X107550702Y-134763341D01*
X107511005Y-134740422D01*
X107455103Y-134725443D01*
X107358279Y-134699499D01*
X107200165Y-134699499D01*
X107192569Y-134699499D01*
X107192553Y-134699500D01*
X100324499Y-134699500D01*
X100257460Y-134679815D01*
X100211705Y-134627011D01*
X100200499Y-134575500D01*
X100200499Y-134452129D01*
X100200498Y-134452123D01*
X100200497Y-134452116D01*
X100194091Y-134392517D01*
X100192314Y-134387753D01*
X100143797Y-134257671D01*
X100143793Y-134257664D01*
X100057547Y-134142455D01*
X100057544Y-134142452D01*
X99942335Y-134056206D01*
X99942328Y-134056202D01*
X99807482Y-134005908D01*
X99807483Y-134005908D01*
X99747883Y-133999501D01*
X99747881Y-133999500D01*
X99747873Y-133999500D01*
X99747864Y-133999500D01*
X96852129Y-133999500D01*
X96852123Y-133999501D01*
X96792516Y-134005908D01*
X96657671Y-134056202D01*
X96657664Y-134056206D01*
X96542455Y-134142452D01*
X96542452Y-134142455D01*
X96456206Y-134257664D01*
X96456202Y-134257671D01*
X96405908Y-134392517D01*
X96399501Y-134452116D01*
X96399501Y-134452123D01*
X96399500Y-134452135D01*
X96399500Y-136521883D01*
X96379815Y-136588922D01*
X96327011Y-136634677D01*
X96257853Y-136644621D01*
X96200014Y-136620258D01*
X96147116Y-136579668D01*
X96063803Y-136515738D01*
X95836700Y-136384621D01*
X95836690Y-136384616D01*
X95594428Y-136284268D01*
X95594421Y-136284266D01*
X95594419Y-136284265D01*
X95341116Y-136216393D01*
X95264348Y-136206286D01*
X95081127Y-136182163D01*
X95081120Y-136182163D01*
X94818880Y-136182163D01*
X94818872Y-136182163D01*
X94587772Y-136212589D01*
X94558884Y-136216393D01*
X94314792Y-136281797D01*
X94305581Y-136284265D01*
X94305571Y-136284268D01*
X94063309Y-136384616D01*
X94063299Y-136384621D01*
X93836196Y-136515738D01*
X93628148Y-136675381D01*
X93442718Y-136860811D01*
X93283075Y-137068859D01*
X93151958Y-137295962D01*
X93151953Y-137295972D01*
X93051605Y-137538234D01*
X93051602Y-137538244D01*
X92983730Y-137791547D01*
X92979926Y-137820435D01*
X92949500Y-138051535D01*
X92949500Y-138313790D01*
X92975009Y-138507536D01*
X92983730Y-138573779D01*
X93048831Y-138816739D01*
X93051602Y-138827081D01*
X93051605Y-138827091D01*
X93151953Y-139069353D01*
X93151958Y-139069363D01*
X93283075Y-139296466D01*
X93442718Y-139504514D01*
X93442726Y-139504523D01*
X93628140Y-139689937D01*
X93628148Y-139689944D01*
X93836196Y-139849587D01*
X94063299Y-139980704D01*
X94063309Y-139980709D01*
X94196340Y-140035812D01*
X94305581Y-140081061D01*
X94558884Y-140148933D01*
X94818880Y-140183163D01*
X94818887Y-140183163D01*
X95081113Y-140183163D01*
X95081120Y-140183163D01*
X95341116Y-140148933D01*
X95594419Y-140081061D01*
X95790984Y-139999641D01*
X95836690Y-139980709D01*
X95836691Y-139980708D01*
X95836697Y-139980706D01*
X96063803Y-139849587D01*
X96271851Y-139689945D01*
X96271855Y-139689940D01*
X96271860Y-139689937D01*
X96457274Y-139504523D01*
X96457277Y-139504518D01*
X96457282Y-139504514D01*
X96616924Y-139296466D01*
X96748043Y-139069360D01*
X96848398Y-138827082D01*
X96916270Y-138573779D01*
X96950500Y-138313783D01*
X96950500Y-138051543D01*
X96916270Y-137791547D01*
X96848398Y-137538244D01*
X96847252Y-137535478D01*
X96779518Y-137371952D01*
X96772049Y-137302482D01*
X96803324Y-137240003D01*
X96863413Y-137204351D01*
X96894071Y-137200499D01*
X99747872Y-137200499D01*
X99807483Y-137194091D01*
X99942331Y-137143796D01*
X100057546Y-137057546D01*
X100143796Y-136942331D01*
X100194091Y-136807483D01*
X100200500Y-136747873D01*
X100200500Y-136024500D01*
X100220185Y-135957461D01*
X100272989Y-135911706D01*
X100324500Y-135900500D01*
X100867991Y-135900500D01*
X100935030Y-135920185D01*
X100980785Y-135972989D01*
X100990729Y-136042147D01*
X100981055Y-136072657D01*
X100981994Y-136073046D01*
X100980129Y-136077547D01*
X100926597Y-136242302D01*
X100904056Y-136384621D01*
X100899500Y-136413389D01*
X100899500Y-136586611D01*
X100926598Y-136757701D01*
X100980127Y-136922445D01*
X101058768Y-137076788D01*
X101160586Y-137216928D01*
X101283072Y-137339414D01*
X101423212Y-137441232D01*
X101577555Y-137519873D01*
X101742299Y-137573402D01*
X101913389Y-137600500D01*
X101913390Y-137600500D01*
X102086610Y-137600500D01*
X102086611Y-137600500D01*
X102257701Y-137573402D01*
X102422445Y-137519873D01*
X102576788Y-137441232D01*
X102716928Y-137339414D01*
X102839414Y-137216928D01*
X102941232Y-137076788D01*
X103019873Y-136922445D01*
X103073402Y-136757701D01*
X103100500Y-136586611D01*
X103100500Y-136413389D01*
X103073402Y-136242299D01*
X103019873Y-136077555D01*
X103019871Y-136077552D01*
X103019870Y-136077547D01*
X103018006Y-136073046D01*
X103019920Y-136072253D01*
X103008628Y-136012127D01*
X103034904Y-135947386D01*
X103092010Y-135907129D01*
X103132009Y-135900500D01*
X103893106Y-135900500D01*
X103960145Y-135920185D01*
X104005900Y-135972989D01*
X104015844Y-136042147D01*
X103986819Y-136105703D01*
X103967418Y-136123766D01*
X103942452Y-136142455D01*
X103856206Y-136257664D01*
X103856202Y-136257671D01*
X103805908Y-136392517D01*
X103799501Y-136452116D01*
X103799500Y-136452135D01*
X103799500Y-138747870D01*
X103799501Y-138747876D01*
X103805908Y-138807483D01*
X103856202Y-138942328D01*
X103856206Y-138942335D01*
X103942452Y-139057544D01*
X103942455Y-139057547D01*
X104057664Y-139143793D01*
X104057671Y-139143797D01*
X104192517Y-139194091D01*
X104192516Y-139194091D01*
X104199444Y-139194835D01*
X104252127Y-139200500D01*
X107147872Y-139200499D01*
X107207483Y-139194091D01*
X107342331Y-139143796D01*
X107342336Y-139143791D01*
X107343682Y-139143058D01*
X107345191Y-139142729D01*
X107350641Y-139140697D01*
X107350933Y-139141479D01*
X107411954Y-139128200D01*
X107477420Y-139152612D01*
X107519296Y-139208542D01*
X107524286Y-139278233D01*
X107520824Y-139290888D01*
X107472326Y-139437244D01*
X107472325Y-139437248D01*
X107462000Y-139538315D01*
X107462000Y-140111669D01*
X107462001Y-140111687D01*
X107472325Y-140212752D01*
X107498869Y-140292855D01*
X107526592Y-140376516D01*
X107617160Y-140523350D01*
X107739150Y-140645340D01*
X107885984Y-140735908D01*
X108049747Y-140790174D01*
X108150823Y-140800500D01*
X108574901Y-140800499D01*
X108641940Y-140820183D01*
X108662582Y-140836818D01*
X108906284Y-141080520D01*
X108906286Y-141080521D01*
X108906290Y-141080524D01*
X109012759Y-141141993D01*
X109043216Y-141159577D01*
X109195943Y-141200501D01*
X109195945Y-141200501D01*
X109361654Y-141200501D01*
X109361670Y-141200500D01*
X110732348Y-141200500D01*
X110799387Y-141220185D01*
X110845142Y-141272989D01*
X110855287Y-141308317D01*
X110864953Y-141381753D01*
X110864956Y-141381762D01*
X110901531Y-141470063D01*
X110925464Y-141527841D01*
X111021718Y-141653282D01*
X111147159Y-141749536D01*
X111293238Y-141810044D01*
X111410639Y-141825500D01*
X112764360Y-141825499D01*
X112764363Y-141825499D01*
X112881753Y-141810046D01*
X112881757Y-141810044D01*
X112881762Y-141810044D01*
X113027841Y-141749536D01*
X113027845Y-141749532D01*
X113034876Y-141745474D01*
X113035882Y-141747216D01*
X113090932Y-141725931D01*
X113101257Y-141725500D01*
X116798743Y-141725500D01*
X116865782Y-141745185D01*
X116871099Y-141748924D01*
X116872157Y-141749534D01*
X116872159Y-141749536D01*
X116872160Y-141749536D01*
X116872163Y-141749538D01*
X116945198Y-141779790D01*
X117018238Y-141810044D01*
X117135639Y-141825500D01*
X118489360Y-141825499D01*
X118489363Y-141825499D01*
X118606753Y-141810046D01*
X118606757Y-141810044D01*
X118606762Y-141810044D01*
X118752841Y-141749536D01*
X118878282Y-141653282D01*
X118974536Y-141527841D01*
X119035044Y-141381762D01*
X119050500Y-141264361D01*
X119050499Y-140985640D01*
X119035044Y-140868238D01*
X119026434Y-140847454D01*
X119018965Y-140777986D01*
X119026435Y-140752545D01*
X119035044Y-140731762D01*
X119050500Y-140614361D01*
X119050499Y-140350098D01*
X119059144Y-140320654D01*
X119065666Y-140290674D01*
X119069419Y-140285659D01*
X119070183Y-140283060D01*
X119086816Y-140262419D01*
X119094894Y-140254341D01*
X119155520Y-140193716D01*
X119155521Y-140193713D01*
X119349594Y-139999639D01*
X119410917Y-139966157D01*
X119437274Y-139963323D01*
X122460512Y-139963323D01*
X122527551Y-139983008D01*
X122573306Y-140035812D01*
X122584512Y-140087323D01*
X122584512Y-140556860D01*
X122599836Y-140673271D01*
X122599840Y-140673283D01*
X122659841Y-140818141D01*
X122659843Y-140818144D01*
X122705090Y-140877110D01*
X122755296Y-140942539D01*
X122811466Y-140985640D01*
X122879690Y-141037991D01*
X122879693Y-141037993D01*
X122971040Y-141075829D01*
X123024555Y-141097996D01*
X123140977Y-141113323D01*
X125061046Y-141113322D01*
X125061049Y-141113322D01*
X125177460Y-141097998D01*
X125177464Y-141097996D01*
X125177469Y-141097996D01*
X125322332Y-141037992D01*
X125446728Y-140942539D01*
X125542181Y-140818143D01*
X125602185Y-140673280D01*
X125617512Y-140556858D01*
X125617511Y-140087322D01*
X125637195Y-140020284D01*
X125689999Y-139974529D01*
X125741511Y-139963323D01*
X129908569Y-139963323D01*
X129938009Y-139971967D01*
X129967996Y-139978491D01*
X129973011Y-139982245D01*
X129975608Y-139983008D01*
X129996249Y-139999641D01*
X130075591Y-140078983D01*
X130109076Y-140140306D01*
X130104092Y-140209998D01*
X130075595Y-140254341D01*
X130055911Y-140274026D01*
X130055904Y-140274034D01*
X129930963Y-140446002D01*
X129834456Y-140635408D01*
X129768765Y-140837583D01*
X129746126Y-140980520D01*
X129735512Y-141047536D01*
X129735512Y-141260110D01*
X129737037Y-141269737D01*
X129768765Y-141470062D01*
X129768765Y-141470064D01*
X129768766Y-141470066D01*
X129828296Y-141653281D01*
X129834456Y-141672237D01*
X129930960Y-141861638D01*
X130020789Y-141985278D01*
X130044268Y-142051085D01*
X130028442Y-142119139D01*
X129978336Y-142167833D01*
X129920470Y-142182163D01*
X94952871Y-142182163D01*
X94947144Y-142182031D01*
X94586695Y-142165366D01*
X94575291Y-142164309D01*
X94220767Y-142114856D01*
X94209508Y-142112751D01*
X93861067Y-142030799D01*
X93850051Y-142027665D01*
X93510643Y-141913907D01*
X93499963Y-141909769D01*
X93390959Y-141861639D01*
X93172510Y-141765184D01*
X93162267Y-141760084D01*
X93060315Y-141703297D01*
X92849545Y-141585899D01*
X92839807Y-141579870D01*
X92544485Y-141377570D01*
X92535345Y-141370667D01*
X92259963Y-141141993D01*
X92251499Y-141134277D01*
X91998385Y-140881163D01*
X91990669Y-140872699D01*
X91922141Y-140790174D01*
X91761993Y-140597314D01*
X91755092Y-140588177D01*
X91733639Y-140556860D01*
X91582099Y-140335638D01*
X91552792Y-140292855D01*
X91546763Y-140283117D01*
X91491277Y-140183501D01*
X91372573Y-139970387D01*
X91367481Y-139960160D01*
X91222888Y-139632686D01*
X91218760Y-139622032D01*
X91104993Y-139282598D01*
X91101866Y-139271608D01*
X91019909Y-138923146D01*
X91017806Y-138911895D01*
X91015270Y-138893716D01*
X90968352Y-138557364D01*
X90967296Y-138545967D01*
X90966250Y-138523350D01*
X90950632Y-138185519D01*
X90950500Y-138179792D01*
X90950500Y-129413389D01*
X100899500Y-129413389D01*
X100899500Y-129586611D01*
X100900483Y-129592815D01*
X100922637Y-129732697D01*
X100926598Y-129757701D01*
X100980127Y-129922445D01*
X101058768Y-130076788D01*
X101160586Y-130216928D01*
X101283072Y-130339414D01*
X101423212Y-130441232D01*
X101577555Y-130519873D01*
X101742299Y-130573402D01*
X101913389Y-130600500D01*
X101913390Y-130600500D01*
X102086610Y-130600500D01*
X102086611Y-130600500D01*
X102257701Y-130573402D01*
X102422445Y-130519873D01*
X102576788Y-130441232D01*
X102716928Y-130339414D01*
X102839414Y-130216928D01*
X102941232Y-130076788D01*
X103019873Y-129922445D01*
X103073402Y-129757701D01*
X103100500Y-129586611D01*
X103100500Y-129413389D01*
X103073402Y-129242299D01*
X103019873Y-129077555D01*
X102941232Y-128923212D01*
X102839414Y-128783072D01*
X102716928Y-128660586D01*
X102576788Y-128558768D01*
X102422445Y-128480127D01*
X102257701Y-128426598D01*
X102257699Y-128426597D01*
X102257698Y-128426597D01*
X102126271Y-128405781D01*
X102086611Y-128399500D01*
X101913389Y-128399500D01*
X101873728Y-128405781D01*
X101742302Y-128426597D01*
X101742299Y-128426598D01*
X101607852Y-128470283D01*
X101577552Y-128480128D01*
X101423211Y-128558768D01*
X101355720Y-128607804D01*
X101283072Y-128660586D01*
X101283070Y-128660588D01*
X101283069Y-128660588D01*
X101160588Y-128783069D01*
X101160588Y-128783070D01*
X101160586Y-128783072D01*
X101133877Y-128819834D01*
X101058768Y-128923211D01*
X100980128Y-129077552D01*
X100980127Y-129077554D01*
X100980127Y-129077555D01*
X100980095Y-129077654D01*
X100926597Y-129242302D01*
X100910398Y-129344583D01*
X100899500Y-129413389D01*
X90950500Y-129413389D01*
X90950500Y-99901263D01*
X96445500Y-99901263D01*
X96445500Y-100098736D01*
X96476389Y-100293763D01*
X96537408Y-100481558D01*
X96537409Y-100481561D01*
X96627056Y-100657501D01*
X96627058Y-100657504D01*
X96743115Y-100817246D01*
X96882753Y-100956884D01*
X97032234Y-101065486D01*
X97042499Y-101072944D01*
X97218439Y-101162591D01*
X97343637Y-101203270D01*
X97406236Y-101223610D01*
X97601264Y-101254500D01*
X97601269Y-101254500D01*
X97798736Y-101254500D01*
X97993763Y-101223610D01*
X98181561Y-101162591D01*
X98357501Y-101072944D01*
X98447192Y-101007779D01*
X98517246Y-100956884D01*
X98517248Y-100956881D01*
X98517252Y-100956879D01*
X98656879Y-100817252D01*
X98656881Y-100817248D01*
X98656884Y-100817246D01*
X98707779Y-100747192D01*
X98772944Y-100657501D01*
X98862591Y-100481561D01*
X98923610Y-100293763D01*
X98954500Y-100098736D01*
X98954500Y-99901263D01*
X104045500Y-99901263D01*
X104045500Y-100098736D01*
X104076389Y-100293763D01*
X104137408Y-100481558D01*
X104137409Y-100481561D01*
X104227056Y-100657501D01*
X104227058Y-100657504D01*
X104343115Y-100817246D01*
X104482753Y-100956884D01*
X104632234Y-101065486D01*
X104642499Y-101072944D01*
X104818439Y-101162591D01*
X104943637Y-101203270D01*
X105006236Y-101223610D01*
X105201264Y-101254500D01*
X105201269Y-101254500D01*
X105398736Y-101254500D01*
X105593763Y-101223610D01*
X105781561Y-101162591D01*
X105957501Y-101072944D01*
X106047192Y-101007779D01*
X106117246Y-100956884D01*
X106117248Y-100956881D01*
X106117252Y-100956879D01*
X106256879Y-100817252D01*
X106256881Y-100817248D01*
X106256884Y-100817246D01*
X106307779Y-100747192D01*
X106372944Y-100657501D01*
X106462591Y-100481561D01*
X106523610Y-100293763D01*
X106554500Y-100098736D01*
X106554500Y-99901263D01*
X106523610Y-99706236D01*
X106503270Y-99643637D01*
X106462591Y-99518439D01*
X106372944Y-99342499D01*
X106365486Y-99332234D01*
X106256884Y-99182753D01*
X106117246Y-99043115D01*
X105957504Y-98927058D01*
X105957503Y-98927057D01*
X105957501Y-98927056D01*
X105781561Y-98837409D01*
X105781558Y-98837408D01*
X105593763Y-98776389D01*
X105398736Y-98745500D01*
X105398731Y-98745500D01*
X105201269Y-98745500D01*
X105201264Y-98745500D01*
X105006236Y-98776389D01*
X104818441Y-98837408D01*
X104642495Y-98927058D01*
X104482753Y-99043115D01*
X104343115Y-99182753D01*
X104227058Y-99342495D01*
X104137408Y-99518441D01*
X104076389Y-99706236D01*
X104045500Y-99901263D01*
X98954500Y-99901263D01*
X98923610Y-99706236D01*
X98903270Y-99643637D01*
X98862591Y-99518439D01*
X98772944Y-99342499D01*
X98765486Y-99332234D01*
X98656884Y-99182753D01*
X98517246Y-99043115D01*
X98357504Y-98927058D01*
X98357503Y-98927057D01*
X98357501Y-98927056D01*
X98181561Y-98837409D01*
X98181558Y-98837408D01*
X97993763Y-98776389D01*
X97798736Y-98745500D01*
X97798731Y-98745500D01*
X97601269Y-98745500D01*
X97601264Y-98745500D01*
X97406236Y-98776389D01*
X97218441Y-98837408D01*
X97042495Y-98927058D01*
X96882753Y-99043115D01*
X96743115Y-99182753D01*
X96627058Y-99342495D01*
X96537408Y-99518441D01*
X96476389Y-99706236D01*
X96445500Y-99901263D01*
X90950500Y-99901263D01*
X90950500Y-82548938D01*
X93989055Y-82548938D01*
X93989055Y-83923898D01*
X93989583Y-83930077D01*
X93989601Y-83930527D01*
X93993283Y-84033352D01*
X93994262Y-84047008D01*
X93994341Y-84048982D01*
X93993388Y-84052781D01*
X93990218Y-84086023D01*
X93989055Y-84090362D01*
X93989055Y-84090363D01*
X93989055Y-84090364D01*
X93989055Y-85590363D01*
X93989055Y-85590364D01*
X93989055Y-85656256D01*
X93989055Y-85763574D01*
X93989476Y-85766503D01*
X94019600Y-85976023D01*
X94019601Y-85976027D01*
X94080066Y-86181957D01*
X94080071Y-86181969D01*
X94169226Y-86377194D01*
X94169235Y-86377210D01*
X94285273Y-86557768D01*
X94425830Y-86719980D01*
X94588042Y-86860537D01*
X94768600Y-86976575D01*
X94768616Y-86976584D01*
X94934420Y-87052303D01*
X94963845Y-87065741D01*
X94963847Y-87065741D01*
X94963853Y-87065744D01*
X95137928Y-87116855D01*
X95169786Y-87126210D01*
X95382237Y-87156756D01*
X95382238Y-87156756D01*
X97055446Y-87156756D01*
X97055447Y-87156756D01*
X97059766Y-87155598D01*
X97061111Y-87155448D01*
X97061722Y-87155090D01*
X97073701Y-87154045D01*
X97096830Y-87151468D01*
X97098750Y-87151544D01*
X97112459Y-87152528D01*
X97215563Y-87156219D01*
X97215711Y-87156225D01*
X97215804Y-87156256D01*
X97221775Y-87156756D01*
X97223663Y-87156756D01*
X98596873Y-87156756D01*
X98596874Y-87156756D01*
X98767407Y-87132236D01*
X98809320Y-87126211D01*
X98809321Y-87126210D01*
X98809325Y-87126210D01*
X99015266Y-87065739D01*
X99015277Y-87065734D01*
X99210493Y-86976582D01*
X99210499Y-86976578D01*
X99210505Y-86976576D01*
X99391068Y-86860536D01*
X99553278Y-86719979D01*
X99693835Y-86557769D01*
X99809875Y-86377206D01*
X99809877Y-86377200D01*
X99809881Y-86377194D01*
X99899033Y-86181978D01*
X99899033Y-86181977D01*
X99899038Y-86181967D01*
X99959509Y-85976026D01*
X99990055Y-85763575D01*
X99990055Y-85656257D01*
X99990055Y-85590365D01*
X99990055Y-85590364D01*
X99990055Y-82590364D01*
X99990055Y-82548937D01*
X99959509Y-82336486D01*
X99899038Y-82130545D01*
X99899033Y-82130533D01*
X99809881Y-81935317D01*
X99809874Y-81935304D01*
X99776765Y-81883787D01*
X99693835Y-81754743D01*
X99660727Y-81716535D01*
X99553278Y-81592532D01*
X99391069Y-81451977D01*
X99391068Y-81451976D01*
X99276287Y-81378211D01*
X99210506Y-81335936D01*
X99210493Y-81335929D01*
X99015277Y-81246777D01*
X99015264Y-81246772D01*
X98809326Y-81186302D01*
X98809320Y-81186300D01*
X98618310Y-81158838D01*
X98596874Y-81155756D01*
X98555447Y-81155756D01*
X95555447Y-81155756D01*
X95489555Y-81155756D01*
X95382237Y-81155756D01*
X95169787Y-81186301D01*
X95169783Y-81186302D01*
X94963853Y-81246767D01*
X94963841Y-81246772D01*
X94768616Y-81335927D01*
X94768600Y-81335936D01*
X94588042Y-81451974D01*
X94425830Y-81592531D01*
X94285273Y-81754743D01*
X94169235Y-81935301D01*
X94169226Y-81935317D01*
X94080071Y-82130542D01*
X94080066Y-82130554D01*
X94019601Y-82336484D01*
X94019600Y-82336488D01*
X93989055Y-82548938D01*
X90950500Y-82548938D01*
X90950500Y-44248938D01*
X93989055Y-44248938D01*
X93989055Y-45922152D01*
X93990216Y-45926483D01*
X93990364Y-45927817D01*
X93990719Y-45928421D01*
X93991759Y-45940346D01*
X93994341Y-45963529D01*
X93994261Y-45965503D01*
X93993283Y-45979160D01*
X93989605Y-46081883D01*
X93989583Y-46082437D01*
X93989552Y-46082528D01*
X93989055Y-46088494D01*
X93989055Y-47463573D01*
X94019600Y-47676023D01*
X94019601Y-47676027D01*
X94080066Y-47881957D01*
X94080071Y-47881969D01*
X94169226Y-48077194D01*
X94169235Y-48077210D01*
X94285273Y-48257768D01*
X94425830Y-48419980D01*
X94588042Y-48560537D01*
X94768600Y-48676575D01*
X94768616Y-48676584D01*
X94934420Y-48752303D01*
X94963845Y-48765741D01*
X94963847Y-48765741D01*
X94963853Y-48765744D01*
X95137928Y-48816855D01*
X95169786Y-48826210D01*
X95382237Y-48856756D01*
X95382238Y-48856756D01*
X98596873Y-48856756D01*
X98596874Y-48856756D01*
X98767407Y-48832236D01*
X98809320Y-48826211D01*
X98809321Y-48826210D01*
X98809325Y-48826210D01*
X99015266Y-48765739D01*
X99031748Y-48758212D01*
X99210493Y-48676582D01*
X99210499Y-48676578D01*
X99210505Y-48676576D01*
X99391068Y-48560536D01*
X99553278Y-48419979D01*
X99693835Y-48257769D01*
X99809875Y-48077206D01*
X99809877Y-48077200D01*
X99809881Y-48077194D01*
X99899033Y-47881978D01*
X99899033Y-47881977D01*
X99899038Y-47881967D01*
X99959509Y-47676026D01*
X99990055Y-47463575D01*
X99990055Y-47356257D01*
X99990055Y-47290365D01*
X99990055Y-47290364D01*
X99990055Y-44290364D01*
X99990055Y-44248937D01*
X99959509Y-44036486D01*
X99899038Y-43830545D01*
X99899033Y-43830533D01*
X99809881Y-43635317D01*
X99809874Y-43635304D01*
X99776765Y-43583787D01*
X99693835Y-43454743D01*
X99660727Y-43416535D01*
X99553278Y-43292532D01*
X99398135Y-43158100D01*
X99391068Y-43151976D01*
X99326546Y-43110510D01*
X99210506Y-43035936D01*
X99210493Y-43035929D01*
X99015277Y-42946777D01*
X99015264Y-42946772D01*
X98809326Y-42886302D01*
X98809320Y-42886300D01*
X98605992Y-42857067D01*
X98596874Y-42855756D01*
X98555447Y-42855756D01*
X97223663Y-42855756D01*
X97221918Y-42855756D01*
X97215736Y-42856284D01*
X97215310Y-42856301D01*
X97112459Y-42859984D01*
X97098802Y-42860962D01*
X97096828Y-42861042D01*
X97093026Y-42860089D01*
X97059782Y-42856917D01*
X97055451Y-42855756D01*
X97055447Y-42855756D01*
X95555447Y-42855756D01*
X95489555Y-42855756D01*
X95382237Y-42855756D01*
X95169787Y-42886301D01*
X95169783Y-42886302D01*
X94963853Y-42946767D01*
X94963841Y-42946772D01*
X94768616Y-43035927D01*
X94768600Y-43035936D01*
X94588042Y-43151974D01*
X94425830Y-43292531D01*
X94285273Y-43454743D01*
X94169235Y-43635301D01*
X94169226Y-43635317D01*
X94080071Y-43830542D01*
X94080066Y-43830554D01*
X94019601Y-44036484D01*
X94019600Y-44036488D01*
X93989055Y-44248938D01*
X90950500Y-44248938D01*
X90950500Y-40102871D01*
X90950632Y-40097145D01*
X90950741Y-40094781D01*
X90956562Y-39968872D01*
X92949500Y-39968872D01*
X92949500Y-40231127D01*
X92970436Y-40390140D01*
X92983730Y-40491116D01*
X93005178Y-40571161D01*
X93051602Y-40744418D01*
X93051605Y-40744428D01*
X93151953Y-40986690D01*
X93151958Y-40986700D01*
X93283075Y-41213803D01*
X93442718Y-41421851D01*
X93442726Y-41421860D01*
X93628140Y-41607274D01*
X93628148Y-41607281D01*
X93836196Y-41766924D01*
X94063299Y-41898041D01*
X94063309Y-41898046D01*
X94305571Y-41998394D01*
X94305581Y-41998398D01*
X94558884Y-42066270D01*
X94818880Y-42100500D01*
X94818887Y-42100500D01*
X95081113Y-42100500D01*
X95081120Y-42100500D01*
X95341116Y-42066270D01*
X95594419Y-41998398D01*
X95836697Y-41898043D01*
X96063803Y-41766924D01*
X96271851Y-41607282D01*
X96271855Y-41607277D01*
X96271860Y-41607274D01*
X96457274Y-41421860D01*
X96457277Y-41421855D01*
X96457282Y-41421851D01*
X96616924Y-41213803D01*
X96748043Y-40986697D01*
X96848398Y-40744419D01*
X96916270Y-40491116D01*
X96950500Y-40231120D01*
X96950500Y-39968880D01*
X96916270Y-39708884D01*
X96848398Y-39455581D01*
X96848394Y-39455571D01*
X96748046Y-39213309D01*
X96748041Y-39213299D01*
X96616924Y-38986196D01*
X96494424Y-38826554D01*
X96457282Y-38778149D01*
X96457281Y-38778148D01*
X96457274Y-38778140D01*
X96271860Y-38592726D01*
X96271851Y-38592718D01*
X96063803Y-38433075D01*
X95836700Y-38301958D01*
X95836690Y-38301953D01*
X95594428Y-38201605D01*
X95594421Y-38201603D01*
X95594419Y-38201602D01*
X95341116Y-38133730D01*
X95283339Y-38126123D01*
X95081127Y-38099500D01*
X95081120Y-38099500D01*
X94818880Y-38099500D01*
X94818872Y-38099500D01*
X94587772Y-38129926D01*
X94558884Y-38133730D01*
X94305581Y-38201602D01*
X94305571Y-38201605D01*
X94063309Y-38301953D01*
X94063299Y-38301958D01*
X93836196Y-38433075D01*
X93628148Y-38592718D01*
X93442718Y-38778148D01*
X93283075Y-38986196D01*
X93151958Y-39213299D01*
X93151953Y-39213309D01*
X93051605Y-39455571D01*
X93051602Y-39455581D01*
X92983730Y-39708885D01*
X92949500Y-39968872D01*
X90956562Y-39968872D01*
X90967296Y-39736687D01*
X90968353Y-39725292D01*
X91017809Y-39370757D01*
X91019909Y-39359521D01*
X91101870Y-39011050D01*
X91104993Y-39000070D01*
X91218764Y-38660623D01*
X91222887Y-38649984D01*
X91367487Y-38322495D01*
X91372570Y-38312286D01*
X91546768Y-37999541D01*
X91552794Y-37989809D01*
X91552795Y-37989808D01*
X91755104Y-37694473D01*
X91761987Y-37685360D01*
X91990682Y-37409952D01*
X91998376Y-37401512D01*
X92251512Y-37148376D01*
X92259952Y-37140682D01*
X92535360Y-36911987D01*
X92544473Y-36905104D01*
X92839814Y-36702790D01*
X92849541Y-36696768D01*
X93162286Y-36522570D01*
X93172495Y-36517487D01*
X93499984Y-36372887D01*
X93510623Y-36368764D01*
X93850070Y-36254993D01*
X93861050Y-36251870D01*
X94209521Y-36169909D01*
X94220757Y-36167809D01*
X94575301Y-36118352D01*
X94586687Y-36117296D01*
X94947145Y-36100632D01*
X94952872Y-36100500D01*
X95015892Y-36100500D01*
X143051539Y-36100500D01*
X143118578Y-36120185D01*
G37*
%TD.AperFunction*%
%TA.AperFunction,Conductor*%
G36*
X145468809Y-137707685D02*
G01*
X145514564Y-137760489D01*
X145524808Y-137822678D01*
X145525161Y-137822696D01*
X145525078Y-137824318D01*
X145525127Y-137824614D01*
X145525000Y-137825853D01*
X145525000Y-137875000D01*
X146376000Y-137875000D01*
X146443039Y-137894685D01*
X146488794Y-137947489D01*
X146500000Y-137999000D01*
X146500000Y-138251000D01*
X146480315Y-138318039D01*
X146427511Y-138363794D01*
X146376000Y-138375000D01*
X145525001Y-138375000D01*
X145525001Y-138424154D01*
X145535319Y-138525152D01*
X145589546Y-138688800D01*
X145589551Y-138688811D01*
X145680052Y-138835534D01*
X145680055Y-138835538D01*
X145801961Y-138957444D01*
X145801965Y-138957447D01*
X145910542Y-139024419D01*
X145957267Y-139076367D01*
X145968488Y-139145329D01*
X145940645Y-139209411D01*
X145933126Y-139217638D01*
X145649761Y-139501004D01*
X145588438Y-139534489D01*
X145562080Y-139537323D01*
X142235932Y-139537323D01*
X142168893Y-139517638D01*
X142123138Y-139464834D01*
X142112993Y-139397139D01*
X142127512Y-139286858D01*
X142127511Y-138448789D01*
X142127511Y-138448785D01*
X142112187Y-138332374D01*
X142112185Y-138332370D01*
X142112185Y-138332366D01*
X142090607Y-138280273D01*
X142083139Y-138210807D01*
X142083514Y-138208823D01*
X142085896Y-138196745D01*
X142112185Y-138133280D01*
X142127512Y-138016858D01*
X142127511Y-137985803D01*
X142129856Y-137973920D01*
X142140626Y-137953250D01*
X142147193Y-137930885D01*
X142161594Y-137913011D01*
X142162144Y-137911958D01*
X142162700Y-137911640D01*
X142163824Y-137910244D01*
X142349753Y-137724318D01*
X142411077Y-137690834D01*
X142437434Y-137688000D01*
X145401770Y-137688000D01*
X145468809Y-137707685D01*
G37*
%TD.AperFunction*%
%TA.AperFunction,Conductor*%
G36*
X166189556Y-110656639D02*
G01*
X166235311Y-110709443D01*
X166245255Y-110778601D01*
X166238699Y-110804286D01*
X166210844Y-110878969D01*
X166210843Y-110878971D01*
X166204436Y-110938571D01*
X166204435Y-110938590D01*
X166204435Y-111934325D01*
X166204436Y-111934331D01*
X166210843Y-111993938D01*
X166261137Y-112128783D01*
X166261141Y-112128790D01*
X166347387Y-112243999D01*
X166347390Y-112244002D01*
X166462599Y-112330248D01*
X166462606Y-112330252D01*
X166597452Y-112380546D01*
X166597451Y-112380546D01*
X166604379Y-112381290D01*
X166657062Y-112386955D01*
X168280435Y-112386954D01*
X168347474Y-112406639D01*
X168393229Y-112459442D01*
X168404435Y-112510954D01*
X168404435Y-116694967D01*
X168384750Y-116762006D01*
X168368116Y-116782648D01*
X148785201Y-136365562D01*
X148757007Y-136380956D01*
X148729572Y-136397667D01*
X148726539Y-136397593D01*
X148723878Y-136399047D01*
X148691837Y-136396755D01*
X148659723Y-136395980D01*
X148657212Y-136394279D01*
X148654186Y-136394063D01*
X148628471Y-136374813D01*
X148601874Y-136356798D01*
X148600680Y-136354008D01*
X148598253Y-136352191D01*
X148587028Y-136322097D01*
X148574392Y-136292560D01*
X148574653Y-136288917D01*
X148573836Y-136286727D01*
X148575244Y-136257276D01*
X148576220Y-136251483D01*
X148595627Y-136179057D01*
X148595627Y-136136316D01*
X148597351Y-136126086D01*
X148608274Y-136103619D01*
X148615312Y-136079652D01*
X148626947Y-136065212D01*
X148627902Y-136063250D01*
X148629133Y-136062499D01*
X148631941Y-136059015D01*
X165358506Y-119332449D01*
X165358511Y-119332446D01*
X165368714Y-119322242D01*
X165368716Y-119322242D01*
X165480520Y-119210438D01*
X165559577Y-119073506D01*
X165600500Y-118920779D01*
X165600500Y-110760954D01*
X165620185Y-110693915D01*
X165672989Y-110648160D01*
X165724500Y-110636954D01*
X166122517Y-110636954D01*
X166189556Y-110656639D01*
G37*
%TD.AperFunction*%
%TA.AperFunction,Conductor*%
G36*
X121018477Y-133740034D02*
G01*
X121025592Y-133738798D01*
X121051554Y-133749747D01*
X121078587Y-133757685D01*
X121084388Y-133763594D01*
X121089971Y-133765949D01*
X121113855Y-133791934D01*
X121115535Y-133794388D01*
X121179660Y-133898350D01*
X121202112Y-133920802D01*
X121208608Y-133930287D01*
X121230248Y-133996721D01*
X121212535Y-134064308D01*
X121193985Y-134088032D01*
X121180052Y-134101965D01*
X121089551Y-134248688D01*
X121089546Y-134248699D01*
X121035319Y-134412347D01*
X121025000Y-134513345D01*
X121025000Y-134612500D01*
X121876000Y-134612500D01*
X121943039Y-134632185D01*
X121988794Y-134684989D01*
X122000000Y-134736500D01*
X122000000Y-134988500D01*
X121980315Y-135055539D01*
X121927511Y-135101294D01*
X121876000Y-135112500D01*
X121025001Y-135112500D01*
X121025001Y-135211654D01*
X121035319Y-135312652D01*
X121078349Y-135442509D01*
X121080751Y-135512338D01*
X121045019Y-135572380D01*
X120982498Y-135603572D01*
X120973246Y-135604871D01*
X120924746Y-135609826D01*
X120760984Y-135664092D01*
X120760981Y-135664093D01*
X120614148Y-135754661D01*
X120600181Y-135768629D01*
X120538858Y-135802114D01*
X120469166Y-135797130D01*
X120424819Y-135768629D01*
X120410851Y-135754661D01*
X120410850Y-135754660D01*
X120316404Y-135696405D01*
X120264018Y-135664093D01*
X120264013Y-135664091D01*
X120262569Y-135663612D01*
X120100253Y-135609826D01*
X120100251Y-135609825D01*
X119999178Y-135599500D01*
X119300830Y-135599500D01*
X119300812Y-135599501D01*
X119199747Y-135609825D01*
X119193122Y-135611244D01*
X119192567Y-135608652D01*
X119134687Y-135610629D01*
X119074654Y-135574882D01*
X119043478Y-135512353D01*
X119042603Y-135474343D01*
X119043549Y-135467160D01*
X119050500Y-135414361D01*
X119050499Y-135135640D01*
X119050499Y-135135636D01*
X119035046Y-135018246D01*
X119035044Y-135018241D01*
X119035044Y-135018238D01*
X118974536Y-134872159D01*
X118974535Y-134872158D01*
X118972412Y-134867032D01*
X118964943Y-134797562D01*
X118996218Y-134735083D01*
X118999293Y-134731897D01*
X119032837Y-134698353D01*
X119032837Y-134698352D01*
X119032840Y-134698350D01*
X119123408Y-134551516D01*
X119177674Y-134387753D01*
X119188000Y-134286677D01*
X119187999Y-133861999D01*
X119207683Y-133794961D01*
X119260487Y-133749206D01*
X119311999Y-133738000D01*
X121011548Y-133738000D01*
X121018477Y-133740034D01*
G37*
%TD.AperFunction*%
%TA.AperFunction,Conductor*%
G36*
X167841355Y-92690817D02*
G01*
X167855253Y-92706856D01*
X167860418Y-92713965D01*
X168027425Y-92880972D01*
X168170003Y-92984561D01*
X168218503Y-93019799D01*
X168278737Y-93050489D01*
X168336729Y-93080037D01*
X168387525Y-93128011D01*
X168404435Y-93190522D01*
X168404435Y-94003946D01*
X168384750Y-94070985D01*
X168331946Y-94116740D01*
X168262788Y-94126684D01*
X168199232Y-94097659D01*
X168177333Y-94072837D01*
X168121789Y-93989711D01*
X168121786Y-93989707D01*
X168010292Y-93878213D01*
X168010288Y-93878210D01*
X167879185Y-93790609D01*
X167879172Y-93790602D01*
X167733501Y-93730264D01*
X167733489Y-93730261D01*
X167578845Y-93699500D01*
X167578842Y-93699500D01*
X167421158Y-93699500D01*
X167421155Y-93699500D01*
X167266510Y-93730261D01*
X167266498Y-93730264D01*
X167120827Y-93790602D01*
X167120814Y-93790609D01*
X166989711Y-93878210D01*
X166989707Y-93878213D01*
X166878213Y-93989707D01*
X166878210Y-93989711D01*
X166790609Y-94120814D01*
X166790602Y-94120827D01*
X166730264Y-94266498D01*
X166730261Y-94266508D01*
X166699361Y-94421850D01*
X166666976Y-94483761D01*
X166665425Y-94485339D01*
X164519481Y-96631282D01*
X164519479Y-96631285D01*
X164469361Y-96718094D01*
X164469359Y-96718096D01*
X164440425Y-96768209D01*
X164440424Y-96768210D01*
X164440423Y-96768215D01*
X164399499Y-96920943D01*
X164399499Y-96920945D01*
X164399499Y-97089046D01*
X164399500Y-97089059D01*
X164399500Y-118541624D01*
X164379815Y-118608663D01*
X164363181Y-118629305D01*
X147514607Y-135477878D01*
X147514605Y-135477880D01*
X147483573Y-135531632D01*
X147468485Y-135546018D01*
X147457176Y-135563529D01*
X147443709Y-135569642D01*
X147433006Y-135579848D01*
X147412536Y-135583793D01*
X147393556Y-135592410D01*
X147378923Y-135590272D01*
X147364399Y-135593072D01*
X147345044Y-135585323D01*
X147324420Y-135582311D01*
X147306682Y-135569965D01*
X147299534Y-135567104D01*
X147294771Y-135563163D01*
X147291544Y-135560354D01*
X147198350Y-135467160D01*
X147150752Y-135437801D01*
X147143086Y-135431128D01*
X147129517Y-135409909D01*
X147112678Y-135391187D01*
X147109994Y-135379380D01*
X147105445Y-135372265D01*
X147105473Y-135359484D01*
X147100500Y-135337598D01*
X147100500Y-134970943D01*
X147095975Y-134954058D01*
X147095974Y-134954053D01*
X147079908Y-134894091D01*
X147081571Y-134824241D01*
X147120735Y-134766379D01*
X147184963Y-134738876D01*
X147199683Y-134737999D01*
X147324403Y-134737999D01*
X147434463Y-134723511D01*
X147434467Y-134723509D01*
X147434472Y-134723509D01*
X147571429Y-134666779D01*
X147689036Y-134576536D01*
X147779279Y-134458929D01*
X147836009Y-134321972D01*
X147850500Y-134211901D01*
X147850499Y-134013100D01*
X147849552Y-134005909D01*
X147843368Y-133958929D01*
X147836009Y-133903028D01*
X147836008Y-133903025D01*
X147833905Y-133895174D01*
X147837207Y-133894289D01*
X147831392Y-133840575D01*
X147834501Y-133829985D01*
X147833905Y-133829826D01*
X147836008Y-133821975D01*
X147836008Y-133821974D01*
X147836009Y-133821972D01*
X147850500Y-133711901D01*
X147850499Y-133513100D01*
X147850499Y-133513096D01*
X147836011Y-133403036D01*
X147833906Y-133395182D01*
X147837007Y-133394350D01*
X147831128Y-133339882D01*
X147834147Y-133329889D01*
X147833418Y-133329694D01*
X147835521Y-133321842D01*
X147846626Y-133237500D01*
X147818506Y-133237500D01*
X147814854Y-133236427D01*
X147811146Y-133237281D01*
X147781596Y-133226662D01*
X147751467Y-133217815D01*
X147747933Y-133214565D01*
X147745393Y-133213652D01*
X147720138Y-133188997D01*
X147718603Y-133186997D01*
X147693402Y-133121831D01*
X147707433Y-133053384D01*
X147756241Y-133003389D01*
X147816971Y-132987500D01*
X147846626Y-132987500D01*
X147835521Y-132903153D01*
X147833418Y-132895303D01*
X147836669Y-132894431D01*
X147830866Y-132840495D01*
X147833991Y-132829850D01*
X147833418Y-132829697D01*
X147835521Y-132821846D01*
X147846626Y-132737500D01*
X147061500Y-132737500D01*
X147052814Y-132734949D01*
X147043853Y-132736238D01*
X147019812Y-132725259D01*
X146994461Y-132717815D01*
X146988533Y-132710974D01*
X146980297Y-132707213D01*
X146966007Y-132684978D01*
X146948706Y-132665011D01*
X146946418Y-132654496D01*
X146942523Y-132648435D01*
X146937500Y-132613500D01*
X146937500Y-132611500D01*
X146957185Y-132544461D01*
X147009989Y-132498706D01*
X147061500Y-132487500D01*
X147846626Y-132487500D01*
X147835521Y-132403159D01*
X147835521Y-132403157D01*
X147778843Y-132266324D01*
X147688679Y-132148820D01*
X147571175Y-132058656D01*
X147434341Y-132001978D01*
X147324377Y-131987500D01*
X147041979Y-131987500D01*
X147025852Y-131996305D01*
X146956160Y-131991318D01*
X146900229Y-131949444D01*
X146875815Y-131883979D01*
X146875499Y-131875138D01*
X146875499Y-131607944D01*
X146895184Y-131540905D01*
X146911821Y-131520260D01*
X146921792Y-131510289D01*
X147009393Y-131379185D01*
X147009393Y-131379184D01*
X147009397Y-131379179D01*
X147069740Y-131233497D01*
X147100503Y-131078842D01*
X147100503Y-130921158D01*
X147100503Y-130921155D01*
X147100502Y-130921153D01*
X147069740Y-130766503D01*
X147045337Y-130707590D01*
X147037869Y-130638123D01*
X147069144Y-130575643D01*
X147120893Y-130542434D01*
X147219334Y-130509814D01*
X147368656Y-130417712D01*
X147492712Y-130293656D01*
X147584814Y-130144334D01*
X147639999Y-129977797D01*
X147650500Y-129875009D01*
X147650499Y-128524992D01*
X147647740Y-128497987D01*
X147639999Y-128422203D01*
X147639998Y-128422200D01*
X147631978Y-128397998D01*
X147584814Y-128255666D01*
X147492712Y-128106344D01*
X147368656Y-127982288D01*
X147243559Y-127905128D01*
X147219336Y-127890187D01*
X147219331Y-127890185D01*
X147217862Y-127889698D01*
X147052797Y-127835001D01*
X147052795Y-127835000D01*
X146950010Y-127824500D01*
X146149998Y-127824500D01*
X146149980Y-127824501D01*
X146047203Y-127835000D01*
X146047200Y-127835001D01*
X145880668Y-127890185D01*
X145880663Y-127890187D01*
X145731342Y-127982289D01*
X145607287Y-128106344D01*
X145567688Y-128170544D01*
X145515739Y-128217268D01*
X145446777Y-128228489D01*
X145382695Y-128200645D01*
X145374469Y-128193127D01*
X145266930Y-128085588D01*
X145266928Y-128085586D01*
X145126788Y-127983768D01*
X144972445Y-127905127D01*
X144807701Y-127851598D01*
X144807699Y-127851597D01*
X144807698Y-127851597D01*
X144676271Y-127830781D01*
X144636611Y-127824500D01*
X144463389Y-127824500D01*
X144423728Y-127830781D01*
X144292302Y-127851597D01*
X144127552Y-127905128D01*
X143973211Y-127983768D01*
X143893256Y-128041859D01*
X143833072Y-128085586D01*
X143833070Y-128085588D01*
X143833069Y-128085588D01*
X143710588Y-128208069D01*
X143710588Y-128208070D01*
X143710586Y-128208072D01*
X143695501Y-128228835D01*
X143608768Y-128348211D01*
X143530128Y-128502552D01*
X143476597Y-128667302D01*
X143463420Y-128750499D01*
X143449500Y-128838389D01*
X143449500Y-129561611D01*
X143476598Y-129732701D01*
X143530127Y-129897445D01*
X143608768Y-130051788D01*
X143710586Y-130191928D01*
X143833072Y-130314414D01*
X143973212Y-130416232D01*
X144127555Y-130494873D01*
X144292299Y-130548402D01*
X144463389Y-130575500D01*
X144463390Y-130575500D01*
X144623800Y-130575500D01*
X144690839Y-130595185D01*
X144736594Y-130647989D01*
X144746538Y-130717147D01*
X144744575Y-130727595D01*
X144742263Y-130737529D01*
X144730263Y-130766503D01*
X144699500Y-130921158D01*
X144699500Y-130921366D01*
X144698751Y-130924586D01*
X144682511Y-130953337D01*
X144667208Y-130982594D01*
X144665408Y-130983618D01*
X144664390Y-130985422D01*
X144635191Y-131000825D01*
X144606492Y-131017168D01*
X144602997Y-131017808D01*
X144602592Y-131018023D01*
X144602073Y-131017978D01*
X144594160Y-131019430D01*
X144540536Y-131026489D01*
X144540527Y-131026491D01*
X144403574Y-131083219D01*
X144403571Y-131083220D01*
X144403571Y-131083221D01*
X144285964Y-131173464D01*
X144207649Y-131275527D01*
X144195719Y-131291074D01*
X144138991Y-131428027D01*
X144138990Y-131428029D01*
X144124501Y-131538089D01*
X144124500Y-131538105D01*
X144124500Y-131863000D01*
X144104815Y-131930039D01*
X144052011Y-131975794D01*
X144000500Y-131987000D01*
X143675596Y-131987000D01*
X143565536Y-132001488D01*
X143565527Y-132001491D01*
X143428574Y-132058219D01*
X143428571Y-132058220D01*
X143428571Y-132058221D01*
X143361318Y-132109826D01*
X143310964Y-132148464D01*
X143220719Y-132266074D01*
X143163991Y-132403027D01*
X143163990Y-132403030D01*
X143163839Y-132404183D01*
X143163440Y-132405083D01*
X143161888Y-132410878D01*
X143160984Y-132410635D01*
X143135574Y-132468080D01*
X143077250Y-132506552D01*
X143040900Y-132512000D01*
X142251511Y-132512000D01*
X142184472Y-132492315D01*
X142138717Y-132439511D01*
X142127511Y-132388000D01*
X142127511Y-132098785D01*
X142112187Y-131982374D01*
X142112185Y-131982370D01*
X142112185Y-131982366D01*
X142090607Y-131930273D01*
X142083139Y-131860807D01*
X142090606Y-131835375D01*
X142112185Y-131783280D01*
X142127512Y-131666858D01*
X142127511Y-130828789D01*
X142127511Y-130828787D01*
X142127511Y-130828785D01*
X142112187Y-130712374D01*
X142112185Y-130712370D01*
X142112185Y-130712366D01*
X142090607Y-130660273D01*
X142083139Y-130590807D01*
X142083514Y-130588823D01*
X142085896Y-130576746D01*
X142112185Y-130513280D01*
X142127512Y-130396858D01*
X142127511Y-130365802D01*
X142129856Y-130353919D01*
X142140626Y-130333249D01*
X142147193Y-130310884D01*
X142161593Y-130293013D01*
X142162144Y-130291957D01*
X142162701Y-130291638D01*
X142163825Y-130290243D01*
X142685518Y-129768551D01*
X142685523Y-129768547D01*
X142695726Y-129758343D01*
X142695728Y-129758343D01*
X142807532Y-129646539D01*
X142886589Y-129509607D01*
X142927512Y-129356880D01*
X142927512Y-120916072D01*
X142927513Y-120916059D01*
X142927513Y-120747957D01*
X142927513Y-120747955D01*
X142886589Y-120595227D01*
X142816851Y-120474438D01*
X142800837Y-120424586D01*
X142800500Y-120421168D01*
X142800500Y-120421158D01*
X142769737Y-120266503D01*
X142769735Y-120266498D01*
X142709397Y-120120827D01*
X142709390Y-120120814D01*
X142621789Y-119989711D01*
X142621786Y-119989707D01*
X142510292Y-119878213D01*
X142510288Y-119878210D01*
X142379185Y-119790609D01*
X142379172Y-119790602D01*
X142233501Y-119730264D01*
X142233489Y-119730261D01*
X142078845Y-119699500D01*
X142078842Y-119699500D01*
X141921158Y-119699500D01*
X141921155Y-119699500D01*
X141766510Y-119730261D01*
X141766498Y-119730264D01*
X141620827Y-119790602D01*
X141620814Y-119790609D01*
X141568891Y-119825304D01*
X141502214Y-119846182D01*
X141434833Y-119827698D01*
X141431109Y-119825304D01*
X141379185Y-119790609D01*
X141379172Y-119790602D01*
X141233501Y-119730264D01*
X141233489Y-119730261D01*
X141078845Y-119699500D01*
X141078842Y-119699500D01*
X140921158Y-119699500D01*
X140921155Y-119699500D01*
X140766510Y-119730261D01*
X140766498Y-119730264D01*
X140620827Y-119790602D01*
X140620814Y-119790609D01*
X140489711Y-119878210D01*
X140489707Y-119878213D01*
X140378213Y-119989707D01*
X140378210Y-119989711D01*
X140290609Y-120120814D01*
X140290602Y-120120827D01*
X140230264Y-120266498D01*
X140230261Y-120266510D01*
X140199500Y-120421153D01*
X140199500Y-120578846D01*
X140230261Y-120733489D01*
X140230264Y-120733501D01*
X140290602Y-120879172D01*
X140290609Y-120879185D01*
X140378210Y-121010288D01*
X140378213Y-121010292D01*
X140489707Y-121121786D01*
X140489711Y-121121789D01*
X140620814Y-121209390D01*
X140620827Y-121209397D01*
X140766498Y-121269735D01*
X140766503Y-121269737D01*
X140831147Y-121282595D01*
X140921849Y-121300638D01*
X140983760Y-121333023D01*
X140985339Y-121334574D01*
X141290193Y-121639428D01*
X141323678Y-121700751D01*
X141326512Y-121727109D01*
X141326512Y-123798323D01*
X141306827Y-123865362D01*
X141254023Y-123911117D01*
X141202512Y-123922323D01*
X139724500Y-123922323D01*
X139657461Y-123902638D01*
X139611706Y-123849834D01*
X139600500Y-123798323D01*
X139600500Y-119541486D01*
X139620185Y-119474447D01*
X139636814Y-119453810D01*
X165901372Y-93189251D01*
X165962693Y-93155768D01*
X166027368Y-93159002D01*
X166153567Y-93200008D01*
X166241045Y-93213863D01*
X166386838Y-93236955D01*
X166386843Y-93236955D01*
X166623032Y-93236955D01*
X166856303Y-93200008D01*
X166925541Y-93177511D01*
X167080927Y-93127023D01*
X167291368Y-93019798D01*
X167482445Y-92880972D01*
X167649452Y-92713965D01*
X167654617Y-92706856D01*
X167709947Y-92664190D01*
X167779560Y-92658211D01*
X167841355Y-92690817D01*
G37*
%TD.AperFunction*%
%TA.AperFunction,Conductor*%
G36*
X151447539Y-52809685D02*
G01*
X151493294Y-52862489D01*
X151504500Y-52914000D01*
X151504500Y-53437315D01*
X151504500Y-53437330D01*
X151504501Y-53437872D01*
X151504583Y-53438635D01*
X151504757Y-53441401D01*
X151504617Y-53442017D01*
X151505000Y-53449156D01*
X151505000Y-53890000D01*
X151630500Y-53890000D01*
X151697539Y-53909685D01*
X151743294Y-53962489D01*
X151754500Y-54014000D01*
X151754500Y-55279218D01*
X151734815Y-55346257D01*
X151718181Y-55366899D01*
X150967181Y-56117899D01*
X150905858Y-56151384D01*
X150836166Y-56146400D01*
X150780233Y-56104528D01*
X150755816Y-56039064D01*
X150755500Y-56030218D01*
X150755500Y-54014000D01*
X150775185Y-53946961D01*
X150827989Y-53901206D01*
X150879500Y-53890000D01*
X151005000Y-53890000D01*
X151005000Y-53449167D01*
X151005427Y-53441188D01*
X151005322Y-53441183D01*
X151005497Y-53437898D01*
X151005500Y-53437873D01*
X151005499Y-52913998D01*
X151025183Y-52846961D01*
X151077987Y-52801206D01*
X151129499Y-52790000D01*
X151380500Y-52790000D01*
X151447539Y-52809685D01*
G37*
%TD.AperFunction*%
%TD*%
M02*
