%TF.GenerationSoftware,KiCad,Pcbnew,10.0.3*%
%TF.CreationDate,2026-06-16T21:26:16-04:00*%
%TF.ProjectId,hiro,6869726f-2e6b-4696-9361-645f70636258,rev?*%
%TF.SameCoordinates,Original*%
%TF.FileFunction,Legend,Top*%
%TF.FilePolarity,Positive*%
%FSLAX46Y46*%
G04 Gerber Fmt 4.6, Leading zero omitted, Abs format (unit mm)*
G04 Created by KiCad (PCBNEW 10.0.3) date 2026-06-16 21:26:16*
%MOMM*%
%LPD*%
G01*
G04 APERTURE LIST*
%ADD10C,0.150000*%
%ADD11C,0.101600*%
%ADD12C,0.120000*%
%ADD13C,0.127000*%
%ADD14C,0.100000*%
%ADD15C,0.504000*%
G04 APERTURE END LIST*
D10*
X142154819Y-134124404D02*
X142964342Y-134124404D01*
X142964342Y-134124404D02*
X143059580Y-134076785D01*
X143059580Y-134076785D02*
X143107200Y-134029166D01*
X143107200Y-134029166D02*
X143154819Y-133933928D01*
X143154819Y-133933928D02*
X143154819Y-133743452D01*
X143154819Y-133743452D02*
X143107200Y-133648214D01*
X143107200Y-133648214D02*
X143059580Y-133600595D01*
X143059580Y-133600595D02*
X142964342Y-133552976D01*
X142964342Y-133552976D02*
X142154819Y-133552976D01*
X142154819Y-133172023D02*
X142154819Y-132552976D01*
X142154819Y-132552976D02*
X142535771Y-132886309D01*
X142535771Y-132886309D02*
X142535771Y-132743452D01*
X142535771Y-132743452D02*
X142583390Y-132648214D01*
X142583390Y-132648214D02*
X142631009Y-132600595D01*
X142631009Y-132600595D02*
X142726247Y-132552976D01*
X142726247Y-132552976D02*
X142964342Y-132552976D01*
X142964342Y-132552976D02*
X143059580Y-132600595D01*
X143059580Y-132600595D02*
X143107200Y-132648214D01*
X143107200Y-132648214D02*
X143154819Y-132743452D01*
X143154819Y-132743452D02*
X143154819Y-133029166D01*
X143154819Y-133029166D02*
X143107200Y-133124404D01*
X143107200Y-133124404D02*
X143059580Y-133172023D01*
X114188095Y-133454819D02*
X114188095Y-134264342D01*
X114188095Y-134264342D02*
X114235714Y-134359580D01*
X114235714Y-134359580D02*
X114283333Y-134407200D01*
X114283333Y-134407200D02*
X114378571Y-134454819D01*
X114378571Y-134454819D02*
X114569047Y-134454819D01*
X114569047Y-134454819D02*
X114664285Y-134407200D01*
X114664285Y-134407200D02*
X114711904Y-134359580D01*
X114711904Y-134359580D02*
X114759523Y-134264342D01*
X114759523Y-134264342D02*
X114759523Y-133454819D01*
X115188095Y-133550057D02*
X115235714Y-133502438D01*
X115235714Y-133502438D02*
X115330952Y-133454819D01*
X115330952Y-133454819D02*
X115569047Y-133454819D01*
X115569047Y-133454819D02*
X115664285Y-133502438D01*
X115664285Y-133502438D02*
X115711904Y-133550057D01*
X115711904Y-133550057D02*
X115759523Y-133645295D01*
X115759523Y-133645295D02*
X115759523Y-133740533D01*
X115759523Y-133740533D02*
X115711904Y-133883390D01*
X115711904Y-133883390D02*
X115140476Y-134454819D01*
X115140476Y-134454819D02*
X115759523Y-134454819D01*
X171042135Y-69498359D02*
X171089754Y-69355502D01*
X171089754Y-69355502D02*
X171089754Y-69117407D01*
X171089754Y-69117407D02*
X171042135Y-69022169D01*
X171042135Y-69022169D02*
X170994515Y-68974550D01*
X170994515Y-68974550D02*
X170899277Y-68926931D01*
X170899277Y-68926931D02*
X170804039Y-68926931D01*
X170804039Y-68926931D02*
X170708801Y-68974550D01*
X170708801Y-68974550D02*
X170661182Y-69022169D01*
X170661182Y-69022169D02*
X170613563Y-69117407D01*
X170613563Y-69117407D02*
X170565944Y-69307883D01*
X170565944Y-69307883D02*
X170518325Y-69403121D01*
X170518325Y-69403121D02*
X170470706Y-69450740D01*
X170470706Y-69450740D02*
X170375468Y-69498359D01*
X170375468Y-69498359D02*
X170280230Y-69498359D01*
X170280230Y-69498359D02*
X170184992Y-69450740D01*
X170184992Y-69450740D02*
X170137373Y-69403121D01*
X170137373Y-69403121D02*
X170089754Y-69307883D01*
X170089754Y-69307883D02*
X170089754Y-69069788D01*
X170089754Y-69069788D02*
X170137373Y-68926931D01*
X171089754Y-67974550D02*
X171089754Y-68545978D01*
X171089754Y-68260264D02*
X170089754Y-68260264D01*
X170089754Y-68260264D02*
X170232611Y-68355502D01*
X170232611Y-68355502D02*
X170327849Y-68450740D01*
X170327849Y-68450740D02*
X170375468Y-68545978D01*
X100217414Y-90896240D02*
X99739457Y-90896240D01*
X99739457Y-90896240D02*
X99739457Y-89892531D01*
X100504187Y-90848445D02*
X100647574Y-90896240D01*
X100647574Y-90896240D02*
X100886553Y-90896240D01*
X100886553Y-90896240D02*
X100982144Y-90848445D01*
X100982144Y-90848445D02*
X101029940Y-90800649D01*
X101029940Y-90800649D02*
X101077735Y-90705058D01*
X101077735Y-90705058D02*
X101077735Y-90609466D01*
X101077735Y-90609466D02*
X101029940Y-90513875D01*
X101029940Y-90513875D02*
X100982144Y-90466079D01*
X100982144Y-90466079D02*
X100886553Y-90418284D01*
X100886553Y-90418284D02*
X100695370Y-90370488D01*
X100695370Y-90370488D02*
X100599779Y-90322692D01*
X100599779Y-90322692D02*
X100551983Y-90274897D01*
X100551983Y-90274897D02*
X100504187Y-90179305D01*
X100504187Y-90179305D02*
X100504187Y-90083714D01*
X100504187Y-90083714D02*
X100551983Y-89988123D01*
X100551983Y-89988123D02*
X100599779Y-89940327D01*
X100599779Y-89940327D02*
X100695370Y-89892531D01*
X100695370Y-89892531D02*
X100934348Y-89892531D01*
X100934348Y-89892531D02*
X101077735Y-89940327D01*
X102033648Y-90896240D02*
X101460100Y-90896240D01*
X101746874Y-90896240D02*
X101746874Y-89892531D01*
X101746874Y-89892531D02*
X101651283Y-90035918D01*
X101651283Y-90035918D02*
X101555692Y-90131510D01*
X101555692Y-90131510D02*
X101460100Y-90179305D01*
X91092544Y-100074125D02*
X91856855Y-100074125D01*
X91474699Y-100456280D02*
X91474699Y-99691970D01*
X110295456Y-100328214D02*
X111058885Y-100328214D01*
X96656666Y-53244819D02*
X96656666Y-53959104D01*
X96656666Y-53959104D02*
X96609047Y-54101961D01*
X96609047Y-54101961D02*
X96513809Y-54197200D01*
X96513809Y-54197200D02*
X96370952Y-54244819D01*
X96370952Y-54244819D02*
X96275714Y-54244819D01*
X97037619Y-53244819D02*
X97656666Y-53244819D01*
X97656666Y-53244819D02*
X97323333Y-53625771D01*
X97323333Y-53625771D02*
X97466190Y-53625771D01*
X97466190Y-53625771D02*
X97561428Y-53673390D01*
X97561428Y-53673390D02*
X97609047Y-53721009D01*
X97609047Y-53721009D02*
X97656666Y-53816247D01*
X97656666Y-53816247D02*
X97656666Y-54054342D01*
X97656666Y-54054342D02*
X97609047Y-54149580D01*
X97609047Y-54149580D02*
X97561428Y-54197200D01*
X97561428Y-54197200D02*
X97466190Y-54244819D01*
X97466190Y-54244819D02*
X97180476Y-54244819D01*
X97180476Y-54244819D02*
X97085238Y-54197200D01*
X97085238Y-54197200D02*
X97037619Y-54149580D01*
X120345833Y-135504580D02*
X120298214Y-135552200D01*
X120298214Y-135552200D02*
X120155357Y-135599819D01*
X120155357Y-135599819D02*
X120060119Y-135599819D01*
X120060119Y-135599819D02*
X119917262Y-135552200D01*
X119917262Y-135552200D02*
X119822024Y-135456961D01*
X119822024Y-135456961D02*
X119774405Y-135361723D01*
X119774405Y-135361723D02*
X119726786Y-135171247D01*
X119726786Y-135171247D02*
X119726786Y-135028390D01*
X119726786Y-135028390D02*
X119774405Y-134837914D01*
X119774405Y-134837914D02*
X119822024Y-134742676D01*
X119822024Y-134742676D02*
X119917262Y-134647438D01*
X119917262Y-134647438D02*
X120060119Y-134599819D01*
X120060119Y-134599819D02*
X120155357Y-134599819D01*
X120155357Y-134599819D02*
X120298214Y-134647438D01*
X120298214Y-134647438D02*
X120345833Y-134695057D01*
X121250595Y-134599819D02*
X120774405Y-134599819D01*
X120774405Y-134599819D02*
X120726786Y-135076009D01*
X120726786Y-135076009D02*
X120774405Y-135028390D01*
X120774405Y-135028390D02*
X120869643Y-134980771D01*
X120869643Y-134980771D02*
X121107738Y-134980771D01*
X121107738Y-134980771D02*
X121202976Y-135028390D01*
X121202976Y-135028390D02*
X121250595Y-135076009D01*
X121250595Y-135076009D02*
X121298214Y-135171247D01*
X121298214Y-135171247D02*
X121298214Y-135409342D01*
X121298214Y-135409342D02*
X121250595Y-135504580D01*
X121250595Y-135504580D02*
X121202976Y-135552200D01*
X121202976Y-135552200D02*
X121107738Y-135599819D01*
X121107738Y-135599819D02*
X120869643Y-135599819D01*
X120869643Y-135599819D02*
X120774405Y-135552200D01*
X120774405Y-135552200D02*
X120726786Y-135504580D01*
X101666666Y-143354819D02*
X101666666Y-144069104D01*
X101666666Y-144069104D02*
X101619047Y-144211961D01*
X101619047Y-144211961D02*
X101523809Y-144307200D01*
X101523809Y-144307200D02*
X101380952Y-144354819D01*
X101380952Y-144354819D02*
X101285714Y-144354819D01*
X102095238Y-143450057D02*
X102142857Y-143402438D01*
X102142857Y-143402438D02*
X102238095Y-143354819D01*
X102238095Y-143354819D02*
X102476190Y-143354819D01*
X102476190Y-143354819D02*
X102571428Y-143402438D01*
X102571428Y-143402438D02*
X102619047Y-143450057D01*
X102619047Y-143450057D02*
X102666666Y-143545295D01*
X102666666Y-143545295D02*
X102666666Y-143640533D01*
X102666666Y-143640533D02*
X102619047Y-143783390D01*
X102619047Y-143783390D02*
X102047619Y-144354819D01*
X102047619Y-144354819D02*
X102666666Y-144354819D01*
X171042135Y-110498359D02*
X171089754Y-110355502D01*
X171089754Y-110355502D02*
X171089754Y-110117407D01*
X171089754Y-110117407D02*
X171042135Y-110022169D01*
X171042135Y-110022169D02*
X170994515Y-109974550D01*
X170994515Y-109974550D02*
X170899277Y-109926931D01*
X170899277Y-109926931D02*
X170804039Y-109926931D01*
X170804039Y-109926931D02*
X170708801Y-109974550D01*
X170708801Y-109974550D02*
X170661182Y-110022169D01*
X170661182Y-110022169D02*
X170613563Y-110117407D01*
X170613563Y-110117407D02*
X170565944Y-110307883D01*
X170565944Y-110307883D02*
X170518325Y-110403121D01*
X170518325Y-110403121D02*
X170470706Y-110450740D01*
X170470706Y-110450740D02*
X170375468Y-110498359D01*
X170375468Y-110498359D02*
X170280230Y-110498359D01*
X170280230Y-110498359D02*
X170184992Y-110450740D01*
X170184992Y-110450740D02*
X170137373Y-110403121D01*
X170137373Y-110403121D02*
X170089754Y-110307883D01*
X170089754Y-110307883D02*
X170089754Y-110069788D01*
X170089754Y-110069788D02*
X170137373Y-109926931D01*
X170184992Y-109545978D02*
X170137373Y-109498359D01*
X170137373Y-109498359D02*
X170089754Y-109403121D01*
X170089754Y-109403121D02*
X170089754Y-109165026D01*
X170089754Y-109165026D02*
X170137373Y-109069788D01*
X170137373Y-109069788D02*
X170184992Y-109022169D01*
X170184992Y-109022169D02*
X170280230Y-108974550D01*
X170280230Y-108974550D02*
X170375468Y-108974550D01*
X170375468Y-108974550D02*
X170518325Y-109022169D01*
X170518325Y-109022169D02*
X171089754Y-109593597D01*
X171089754Y-109593597D02*
X171089754Y-108974550D01*
X150471666Y-54044819D02*
X150471666Y-54759104D01*
X150471666Y-54759104D02*
X150424047Y-54901961D01*
X150424047Y-54901961D02*
X150328809Y-54997200D01*
X150328809Y-54997200D02*
X150185952Y-55044819D01*
X150185952Y-55044819D02*
X150090714Y-55044819D01*
X151471666Y-55044819D02*
X150900238Y-55044819D01*
X151185952Y-55044819D02*
X151185952Y-54044819D01*
X151185952Y-54044819D02*
X151090714Y-54187676D01*
X151090714Y-54187676D02*
X150995476Y-54282914D01*
X150995476Y-54282914D02*
X150900238Y-54330533D01*
X120929580Y-134166666D02*
X120977200Y-134214285D01*
X120977200Y-134214285D02*
X121024819Y-134357142D01*
X121024819Y-134357142D02*
X121024819Y-134452380D01*
X121024819Y-134452380D02*
X120977200Y-134595237D01*
X120977200Y-134595237D02*
X120881961Y-134690475D01*
X120881961Y-134690475D02*
X120786723Y-134738094D01*
X120786723Y-134738094D02*
X120596247Y-134785713D01*
X120596247Y-134785713D02*
X120453390Y-134785713D01*
X120453390Y-134785713D02*
X120262914Y-134738094D01*
X120262914Y-134738094D02*
X120167676Y-134690475D01*
X120167676Y-134690475D02*
X120072438Y-134595237D01*
X120072438Y-134595237D02*
X120024819Y-134452380D01*
X120024819Y-134452380D02*
X120024819Y-134357142D01*
X120024819Y-134357142D02*
X120072438Y-134214285D01*
X120072438Y-134214285D02*
X120120057Y-134166666D01*
X120358152Y-133309523D02*
X121024819Y-133309523D01*
X119977200Y-133547618D02*
X120691485Y-133785713D01*
X120691485Y-133785713D02*
X120691485Y-133166666D01*
X145216666Y-131204819D02*
X145216666Y-131919104D01*
X145216666Y-131919104D02*
X145169047Y-132061961D01*
X145169047Y-132061961D02*
X145073809Y-132157200D01*
X145073809Y-132157200D02*
X144930952Y-132204819D01*
X144930952Y-132204819D02*
X144835714Y-132204819D01*
X146121428Y-131538152D02*
X146121428Y-132204819D01*
X145883333Y-131157200D02*
X145645238Y-131871485D01*
X145645238Y-131871485D02*
X146264285Y-131871485D01*
X109195833Y-139614580D02*
X109148214Y-139662200D01*
X109148214Y-139662200D02*
X109005357Y-139709819D01*
X109005357Y-139709819D02*
X108910119Y-139709819D01*
X108910119Y-139709819D02*
X108767262Y-139662200D01*
X108767262Y-139662200D02*
X108672024Y-139566961D01*
X108672024Y-139566961D02*
X108624405Y-139471723D01*
X108624405Y-139471723D02*
X108576786Y-139281247D01*
X108576786Y-139281247D02*
X108576786Y-139138390D01*
X108576786Y-139138390D02*
X108624405Y-138947914D01*
X108624405Y-138947914D02*
X108672024Y-138852676D01*
X108672024Y-138852676D02*
X108767262Y-138757438D01*
X108767262Y-138757438D02*
X108910119Y-138709819D01*
X108910119Y-138709819D02*
X109005357Y-138709819D01*
X109005357Y-138709819D02*
X109148214Y-138757438D01*
X109148214Y-138757438D02*
X109195833Y-138805057D01*
X110052976Y-138709819D02*
X109862500Y-138709819D01*
X109862500Y-138709819D02*
X109767262Y-138757438D01*
X109767262Y-138757438D02*
X109719643Y-138805057D01*
X109719643Y-138805057D02*
X109624405Y-138947914D01*
X109624405Y-138947914D02*
X109576786Y-139138390D01*
X109576786Y-139138390D02*
X109576786Y-139519342D01*
X109576786Y-139519342D02*
X109624405Y-139614580D01*
X109624405Y-139614580D02*
X109672024Y-139662200D01*
X109672024Y-139662200D02*
X109767262Y-139709819D01*
X109767262Y-139709819D02*
X109957738Y-139709819D01*
X109957738Y-139709819D02*
X110052976Y-139662200D01*
X110052976Y-139662200D02*
X110100595Y-139614580D01*
X110100595Y-139614580D02*
X110148214Y-139519342D01*
X110148214Y-139519342D02*
X110148214Y-139281247D01*
X110148214Y-139281247D02*
X110100595Y-139186009D01*
X110100595Y-139186009D02*
X110052976Y-139138390D01*
X110052976Y-139138390D02*
X109957738Y-139090771D01*
X109957738Y-139090771D02*
X109767262Y-139090771D01*
X109767262Y-139090771D02*
X109672024Y-139138390D01*
X109672024Y-139138390D02*
X109624405Y-139186009D01*
X109624405Y-139186009D02*
X109576786Y-139281247D01*
X112102080Y-135541666D02*
X112149700Y-135589285D01*
X112149700Y-135589285D02*
X112197319Y-135732142D01*
X112197319Y-135732142D02*
X112197319Y-135827380D01*
X112197319Y-135827380D02*
X112149700Y-135970237D01*
X112149700Y-135970237D02*
X112054461Y-136065475D01*
X112054461Y-136065475D02*
X111959223Y-136113094D01*
X111959223Y-136113094D02*
X111768747Y-136160713D01*
X111768747Y-136160713D02*
X111625890Y-136160713D01*
X111625890Y-136160713D02*
X111435414Y-136113094D01*
X111435414Y-136113094D02*
X111340176Y-136065475D01*
X111340176Y-136065475D02*
X111244938Y-135970237D01*
X111244938Y-135970237D02*
X111197319Y-135827380D01*
X111197319Y-135827380D02*
X111197319Y-135732142D01*
X111197319Y-135732142D02*
X111244938Y-135589285D01*
X111244938Y-135589285D02*
X111292557Y-135541666D01*
X112197319Y-134589285D02*
X112197319Y-135160713D01*
X112197319Y-134874999D02*
X111197319Y-134874999D01*
X111197319Y-134874999D02*
X111340176Y-134970237D01*
X111340176Y-134970237D02*
X111435414Y-135065475D01*
X111435414Y-135065475D02*
X111483033Y-135160713D01*
D11*
X132914821Y-144089343D02*
X132914821Y-143575296D01*
X132914821Y-143575296D02*
X132884583Y-143514820D01*
X132884583Y-143514820D02*
X132854345Y-143484582D01*
X132854345Y-143484582D02*
X132793869Y-143454343D01*
X132793869Y-143454343D02*
X132672916Y-143454343D01*
X132672916Y-143454343D02*
X132612440Y-143484582D01*
X132612440Y-143484582D02*
X132582202Y-143514820D01*
X132582202Y-143514820D02*
X132551964Y-143575296D01*
X132551964Y-143575296D02*
X132551964Y-144089343D01*
X131916964Y-143454343D02*
X132279821Y-143454343D01*
X132098393Y-143454343D02*
X132098393Y-144089343D01*
X132098393Y-144089343D02*
X132158869Y-143998629D01*
X132158869Y-143998629D02*
X132219345Y-143938153D01*
X132219345Y-143938153D02*
X132279821Y-143907915D01*
D10*
X120002080Y-133241666D02*
X120049700Y-133289285D01*
X120049700Y-133289285D02*
X120097319Y-133432142D01*
X120097319Y-133432142D02*
X120097319Y-133527380D01*
X120097319Y-133527380D02*
X120049700Y-133670237D01*
X120049700Y-133670237D02*
X119954461Y-133765475D01*
X119954461Y-133765475D02*
X119859223Y-133813094D01*
X119859223Y-133813094D02*
X119668747Y-133860713D01*
X119668747Y-133860713D02*
X119525890Y-133860713D01*
X119525890Y-133860713D02*
X119335414Y-133813094D01*
X119335414Y-133813094D02*
X119240176Y-133765475D01*
X119240176Y-133765475D02*
X119144938Y-133670237D01*
X119144938Y-133670237D02*
X119097319Y-133527380D01*
X119097319Y-133527380D02*
X119097319Y-133432142D01*
X119097319Y-133432142D02*
X119144938Y-133289285D01*
X119144938Y-133289285D02*
X119192557Y-133241666D01*
X119097319Y-132908332D02*
X119097319Y-132289285D01*
X119097319Y-132289285D02*
X119478271Y-132622618D01*
X119478271Y-132622618D02*
X119478271Y-132479761D01*
X119478271Y-132479761D02*
X119525890Y-132384523D01*
X119525890Y-132384523D02*
X119573509Y-132336904D01*
X119573509Y-132336904D02*
X119668747Y-132289285D01*
X119668747Y-132289285D02*
X119906842Y-132289285D01*
X119906842Y-132289285D02*
X120002080Y-132336904D01*
X120002080Y-132336904D02*
X120049700Y-132384523D01*
X120049700Y-132384523D02*
X120097319Y-132479761D01*
X120097319Y-132479761D02*
X120097319Y-132765475D01*
X120097319Y-132765475D02*
X120049700Y-132860713D01*
X120049700Y-132860713D02*
X120002080Y-132908332D01*
X145524819Y-137379166D02*
X145048628Y-137712499D01*
X145524819Y-137950594D02*
X144524819Y-137950594D01*
X144524819Y-137950594D02*
X144524819Y-137569642D01*
X144524819Y-137569642D02*
X144572438Y-137474404D01*
X144572438Y-137474404D02*
X144620057Y-137426785D01*
X144620057Y-137426785D02*
X144715295Y-137379166D01*
X144715295Y-137379166D02*
X144858152Y-137379166D01*
X144858152Y-137379166D02*
X144953390Y-137426785D01*
X144953390Y-137426785D02*
X145001009Y-137474404D01*
X145001009Y-137474404D02*
X145048628Y-137569642D01*
X145048628Y-137569642D02*
X145048628Y-137950594D01*
X145524819Y-136426785D02*
X145524819Y-136998213D01*
X145524819Y-136712499D02*
X144524819Y-136712499D01*
X144524819Y-136712499D02*
X144667676Y-136807737D01*
X144667676Y-136807737D02*
X144762914Y-136902975D01*
X144762914Y-136902975D02*
X144810533Y-136998213D01*
X109195833Y-138754580D02*
X109148214Y-138802200D01*
X109148214Y-138802200D02*
X109005357Y-138849819D01*
X109005357Y-138849819D02*
X108910119Y-138849819D01*
X108910119Y-138849819D02*
X108767262Y-138802200D01*
X108767262Y-138802200D02*
X108672024Y-138706961D01*
X108672024Y-138706961D02*
X108624405Y-138611723D01*
X108624405Y-138611723D02*
X108576786Y-138421247D01*
X108576786Y-138421247D02*
X108576786Y-138278390D01*
X108576786Y-138278390D02*
X108624405Y-138087914D01*
X108624405Y-138087914D02*
X108672024Y-137992676D01*
X108672024Y-137992676D02*
X108767262Y-137897438D01*
X108767262Y-137897438D02*
X108910119Y-137849819D01*
X108910119Y-137849819D02*
X109005357Y-137849819D01*
X109005357Y-137849819D02*
X109148214Y-137897438D01*
X109148214Y-137897438D02*
X109195833Y-137945057D01*
X109576786Y-137945057D02*
X109624405Y-137897438D01*
X109624405Y-137897438D02*
X109719643Y-137849819D01*
X109719643Y-137849819D02*
X109957738Y-137849819D01*
X109957738Y-137849819D02*
X110052976Y-137897438D01*
X110052976Y-137897438D02*
X110100595Y-137945057D01*
X110100595Y-137945057D02*
X110148214Y-138040295D01*
X110148214Y-138040295D02*
X110148214Y-138135533D01*
X110148214Y-138135533D02*
X110100595Y-138278390D01*
X110100595Y-138278390D02*
X109529167Y-138849819D01*
X109529167Y-138849819D02*
X110148214Y-138849819D01*
%TO.C,U3*%
D12*
X143890000Y-131752500D02*
X144365000Y-131752500D01*
X143890000Y-132227500D02*
X143890000Y-131752500D01*
X143890000Y-134972500D02*
X143890000Y-134497500D01*
X144365000Y-134972500D02*
X143890000Y-134972500D01*
X146635000Y-131752500D02*
X147110000Y-131752500D01*
X147110000Y-131752500D02*
X147110000Y-132227500D01*
X147110000Y-134497500D02*
X147110000Y-134972500D01*
X147110000Y-134972500D02*
X146635000Y-134972500D01*
X144750000Y-135482500D02*
X144990000Y-135812500D01*
X144510000Y-135812500D01*
X144750000Y-135482500D01*
G36*
X144990000Y-135812500D02*
G01*
X144510000Y-135812500D01*
X144750000Y-135482500D01*
X144990000Y-135812500D01*
G37*
%TO.C,U2*%
X112640000Y-134815000D02*
X117260000Y-134815000D01*
X117260000Y-141585000D02*
X112640000Y-141585000D01*
X111090000Y-135270000D02*
X110760000Y-135510000D01*
X110760000Y-135030000D01*
X111090000Y-135270000D01*
G36*
X111090000Y-135270000D02*
G01*
X110760000Y-135510000D01*
X110760000Y-135030000D01*
X111090000Y-135270000D01*
G37*
%TO.C,S1*%
X166164935Y-67086455D02*
X166164935Y-68086455D01*
X166164935Y-70386455D02*
X166164935Y-69386455D01*
X166164935Y-70386455D02*
X166454935Y-70386455D01*
X166454935Y-67086455D02*
X166164935Y-67086455D01*
X168664935Y-67086455D02*
X168954935Y-67086455D01*
X168954935Y-67086455D02*
X168954935Y-70386455D01*
X168954935Y-70386455D02*
X168664935Y-70386455D01*
X169274935Y-67736455D02*
X168954935Y-67736455D01*
X169274935Y-69736455D02*
X168954935Y-69736455D01*
X169654935Y-68236455D02*
X169274935Y-67736455D01*
X169654935Y-68236455D02*
X169654935Y-69236455D01*
X169654935Y-69236455D02*
X169274935Y-69736455D01*
%TO.C,LS1*%
D13*
X110000000Y-100000000D02*
G75*
G02*
X93000000Y-100000000I-8500000J0D01*
G01*
X93000000Y-100000000D02*
G75*
G02*
X110000000Y-100000000I8500000J0D01*
G01*
%TO.C,J3*%
D12*
X95610000Y-54790000D02*
X96990000Y-54790000D01*
X95610000Y-56170000D02*
X95610000Y-54790000D01*
X95610000Y-57440000D02*
X95610000Y-75330000D01*
X95610000Y-57440000D02*
X98370000Y-57440000D01*
X95610000Y-75330000D02*
X98370000Y-75330000D01*
X98370000Y-57440000D02*
X98370000Y-75330000D01*
%TO.C,C5*%
X120366233Y-136065000D02*
X120658767Y-136065000D01*
X120366233Y-137085000D02*
X120658767Y-137085000D01*
%TO.C,J2*%
X98900000Y-125400000D02*
X105100000Y-125400000D01*
X98900000Y-134300000D02*
X98900000Y-125400000D01*
X98900000Y-140100000D02*
X98900000Y-136900000D01*
X99400000Y-140100000D02*
X98900000Y-140100000D01*
X99400000Y-142600000D02*
X99400000Y-140100000D01*
X104600000Y-140100000D02*
X104600000Y-142600000D01*
X104600000Y-142600000D02*
X99400000Y-142600000D01*
X105100000Y-125400000D02*
X105100000Y-126600000D01*
X105100000Y-129800000D02*
X105100000Y-136300000D01*
X105100000Y-136300000D02*
X107100000Y-136300000D01*
X105100000Y-138900000D02*
X105100000Y-140100000D01*
X105100000Y-138900000D02*
X107100000Y-138900000D01*
X105100000Y-140100000D02*
X104600000Y-140100000D01*
%TO.C,S2*%
X166164935Y-108086455D02*
X166164935Y-109086455D01*
X166164935Y-111386455D02*
X166164935Y-110386455D01*
X166164935Y-111386455D02*
X166454935Y-111386455D01*
X166454935Y-108086455D02*
X166164935Y-108086455D01*
X168664935Y-108086455D02*
X168954935Y-108086455D01*
X168954935Y-108086455D02*
X168954935Y-111386455D01*
X168954935Y-111386455D02*
X168664935Y-111386455D01*
X169274935Y-108736455D02*
X168954935Y-108736455D01*
X169274935Y-110736455D02*
X168954935Y-110736455D01*
X169654935Y-109236455D02*
X169274935Y-108736455D01*
X169654935Y-109236455D02*
X169654935Y-110236455D01*
X169654935Y-110236455D02*
X169274935Y-110736455D01*
%TO.C,J1*%
X143735000Y-52950000D02*
X143735000Y-38940000D01*
X145215000Y-36880000D02*
X144955000Y-36880000D01*
X145415000Y-36680000D02*
X145215000Y-36880000D01*
X145415000Y-36680000D02*
X147725000Y-36680000D01*
X145655000Y-52950000D02*
X143735000Y-52950000D01*
X147725000Y-36680000D02*
X148235000Y-37030000D01*
X154605000Y-37030000D02*
X148235000Y-37030000D01*
X154605000Y-37030000D02*
X154605000Y-36880000D01*
X154815000Y-36680000D02*
X154605000Y-36880000D01*
X156675000Y-36680000D02*
X154815000Y-36680000D01*
X156675000Y-36680000D02*
X156875000Y-36880000D01*
X157255000Y-52950000D02*
X157705000Y-52950000D01*
X157705000Y-41640000D02*
X157705000Y-39840000D01*
X157705000Y-47640000D02*
X157705000Y-42940000D01*
X157705000Y-52950000D02*
X157705000Y-49340000D01*
%TO.C,C4*%
X121490000Y-134146267D02*
X121490000Y-133853733D01*
X122510000Y-134146267D02*
X122510000Y-133853733D01*
%TO.C,J4*%
X142490000Y-122840000D02*
X142490000Y-130660000D01*
X142490000Y-129060000D02*
X143410000Y-129060000D01*
X142490000Y-130660000D02*
X143410000Y-130660000D01*
X143410000Y-129060000D02*
X143690000Y-129060000D01*
X143410000Y-130660000D02*
X143410000Y-129060000D01*
X145050000Y-127200000D02*
X145050000Y-122840000D01*
X146050000Y-122840000D02*
X146050000Y-127200000D01*
X146050000Y-127200000D02*
X145050000Y-127200000D01*
X146850000Y-125100000D02*
X146850000Y-122840000D01*
X147350000Y-125100000D02*
X147350000Y-122840000D01*
X147410000Y-129060000D02*
X147410000Y-130275000D01*
X147410000Y-129060000D02*
X147690000Y-129060000D01*
X147690000Y-129060000D02*
X147690000Y-130660000D01*
X147690000Y-130660000D02*
X148610000Y-130660000D01*
X148610000Y-122840000D02*
X142490000Y-122840000D01*
X148610000Y-129060000D02*
X147690000Y-129060000D01*
X148610000Y-130660000D02*
X148610000Y-122840000D01*
X143250000Y-125100000D02*
X144250000Y-125100000D01*
X144250000Y-126700000D01*
X143250000Y-126700000D01*
X143250000Y-125100000D01*
X146850000Y-125100000D02*
X147850000Y-125100000D01*
X147850000Y-126700000D01*
X146850000Y-126700000D01*
X146850000Y-125100000D01*
%TO.C,C6*%
X109508767Y-137315000D02*
X109216233Y-137315000D01*
X109508767Y-138335000D02*
X109216233Y-138335000D01*
%TO.C,C1*%
X109802500Y-135228733D02*
X109802500Y-135521267D01*
X110822500Y-135228733D02*
X110822500Y-135521267D01*
%TO.C,U1*%
D14*
X123466012Y-124008823D02*
X123466012Y-141153823D01*
X125371012Y-143058823D02*
X139341012Y-143058823D01*
D13*
X127852012Y-144068823D02*
X127852012Y-143058823D01*
X136347284Y-144568823D02*
X128352012Y-144568823D01*
X136851012Y-143058823D02*
X136847284Y-144069095D01*
D14*
X139341012Y-122103823D02*
X125371012Y-122103823D01*
X141246012Y-124008823D02*
X141246012Y-141153823D01*
X123466012Y-124008823D02*
G75*
G02*
X125371012Y-122103823I1905001J-1D01*
G01*
X125371012Y-143058823D02*
G75*
G02*
X123466012Y-141153823I50J1905050D01*
G01*
D13*
X128352012Y-144568823D02*
G75*
G02*
X127852012Y-144068823I100J500100D01*
G01*
X136847284Y-144069095D02*
G75*
G02*
X136347284Y-144568795I-499972J272D01*
G01*
D14*
X139341012Y-122103823D02*
G75*
G02*
X141246012Y-124008823I-1J-1905001D01*
G01*
X141246012Y-141157823D02*
G75*
G02*
X139341012Y-143062823I-1905000J0D01*
G01*
D15*
X140434012Y-141925823D02*
G75*
G02*
X139930012Y-141925823I-252000J0D01*
G01*
X139930012Y-141925823D02*
G75*
G02*
X140434012Y-141925823I252000J0D01*
G01*
X141708012Y-142642823D02*
G75*
G02*
X141204012Y-142642823I-252000J0D01*
G01*
X141204012Y-142642823D02*
G75*
G02*
X141708012Y-142642823I252000J0D01*
G01*
%TO.C,C3*%
D12*
X117702500Y-132928733D02*
X117702500Y-133221267D01*
X118722500Y-132928733D02*
X118722500Y-133221267D01*
%TO.C,R1*%
X145977500Y-137467224D02*
X145977500Y-136957776D01*
X147022500Y-137467224D02*
X147022500Y-136957776D01*
%TO.C,C2*%
X109216233Y-139315000D02*
X109508767Y-139315000D01*
X109216233Y-140335000D02*
X109508767Y-140335000D01*
%TD*%
M02*
