M48
; DRILL file KiCad 10.0.3 date 2026-06-16T21:26:18
; FORMAT={-:-/ absolute / metric / decimal}
; #@! TF.CreationDate,2026-06-16T21:26:18-04:00
; #@! TF.GenerationSoftware,Kicad,Pcbnew,10.0.3
; #@! TF.FileFunction,Plated,1,2,PTH
FMAT,2
METRIC
; #@! TA.AperFunction,Plated,PTH,ViaDrill
T1C0.300
; #@! TA.AperFunction,Plated,PTH,ComponentDrill
T2C0.750
; #@! TA.AperFunction,Plated,PTH,ComponentDrill
T3C0.800
; #@! TA.AperFunction,Plated,PTH,ComponentDrill
T4C1.000
%
G90
G05
T1
X111.5Y-134.5
X116.5Y-139.0
X117.6Y-83.5
X118.0Y-82.0
X122.5Y-86.0
X124.101Y-135.058
X126.5Y-137.0
X131.086Y-138.614
X131.35Y-127.0
X133.35Y-127.0
X135.5Y-140.5
X136.5Y-134.5
X138.5Y-134.0
X139.0Y-136.0
X141.0Y-120.5
X142.0Y-120.5
X142.5Y-134.0
X142.5Y-139.0
X144.0Y-54.5
X144.625Y-134.8
X145.5Y-131.0
X146.3Y-131.0
X148.25Y-111.65
X148.594Y-133.094
X148.595Y-136.095
X149.0Y-54.5
X151.0Y-55.5
X151.0Y-58.5
X154.0Y-50.5
X167.0Y-105.5
X167.5Y-94.5
X167.555Y-70.436
X167.555Y-111.436
T2
X144.55Y-129.2
X146.55Y-129.2
T3
X166.505Y-86.736
X166.505Y-91.736
X169.005Y-86.736
X169.005Y-89.236
X169.005Y-91.736
T4
X96.99Y-56.17
X96.99Y-58.71
X96.99Y-61.25
X96.99Y-63.79
X96.99Y-66.33
X96.99Y-68.87
X96.99Y-71.41
X96.99Y-73.95
X97.7Y-100.0
X105.3Y-100.0
M30
