%TF.GenerationSoftware,KiCad,Pcbnew,10.0.3*%
%TF.CreationDate,2026-06-16T21:26:16-04:00*%
%TF.ProjectId,hiro,6869726f-2e6b-4696-9361-645f70636258,rev?*%
%TF.SameCoordinates,Original*%
%TF.FileFunction,Profile,NP*%
%FSLAX46Y46*%
G04 Gerber Fmt 4.6, Leading zero omitted, Abs format (unit mm)*
G04 Created by KiCad (PCBNEW 10.0.3) date 2026-06-16 21:26:16*
%MOMM*%
%LPD*%
G01*
G04 APERTURE LIST*
%TA.AperFunction,Profile*%
%ADD10C,0.100000*%
%TD*%
G04 APERTURE END LIST*
D10*
X90450000Y-40100000D02*
X90450000Y-138182663D01*
X90450000Y-40100000D02*
G75*
G02*
X94950000Y-35600000I4500000J0D01*
G01*
X94489555Y-44356256D02*
G75*
G02*
X95489555Y-43356255I1000045J-44D01*
G01*
X94489555Y-45856256D02*
X94489555Y-44356256D01*
X94489555Y-46156256D02*
G75*
G02*
X94505668Y-45856255I2799745J56D01*
G01*
X94489555Y-47356256D02*
X94489555Y-46156256D01*
X94489555Y-82656256D02*
G75*
G02*
X95489555Y-81656255I1000045J-44D01*
G01*
X94489555Y-83856256D02*
X94489555Y-82656256D01*
X94489555Y-84156256D02*
X94505673Y-84156256D01*
X94489555Y-85656256D02*
X94489555Y-84156256D01*
X94505673Y-45856256D02*
X94489555Y-45856256D01*
X94505673Y-84156256D02*
G75*
G02*
X94489558Y-83856256I2783627J299956D01*
G01*
X96450000Y-40100000D02*
G75*
G02*
X93450000Y-40100000I-1500000J0D01*
G01*
X93450000Y-40100000D02*
G75*
G02*
X96450000Y-40100000I1500000J0D01*
G01*
X96450000Y-138182663D02*
G75*
G02*
X93450000Y-138182663I-1500000J0D01*
G01*
X93450000Y-138182663D02*
G75*
G02*
X96450000Y-138182663I1500000J0D01*
G01*
X94950000Y-142682663D02*
G75*
G02*
X90450037Y-138182663I0J4499963D01*
G01*
X94950000Y-142682663D02*
X154983954Y-142682663D01*
X95489555Y-43356256D02*
X96989555Y-43356256D01*
X95489555Y-48356256D02*
G75*
G02*
X94489644Y-47356256I45J999956D01*
G01*
X95489555Y-81656256D02*
X98489555Y-81656256D01*
X95489555Y-86656256D02*
G75*
G02*
X94489644Y-85656256I45J999956D01*
G01*
X96989555Y-43356256D02*
X96989555Y-43372374D01*
X96989555Y-43372374D02*
G75*
G02*
X97289555Y-43356261I299945J-2783626D01*
G01*
X96989555Y-86640138D02*
X96989555Y-86656256D01*
X96989555Y-86656256D02*
X95489555Y-86656256D01*
X97289555Y-43356256D02*
X98489555Y-43356256D01*
X97289555Y-86656256D02*
G75*
G02*
X96989555Y-86640142I-55J2799656D01*
G01*
X98489555Y-43356256D02*
G75*
G02*
X99489644Y-44356256I45J-1000044D01*
G01*
X98489555Y-48356256D02*
X95489555Y-48356256D01*
X98489555Y-81656256D02*
G75*
G02*
X99489644Y-82656256I45J-1000044D01*
G01*
X98489555Y-86656256D02*
X97289555Y-86656256D01*
X99489555Y-44356256D02*
X99489555Y-47356256D01*
X99489555Y-47356256D02*
G75*
G02*
X98489555Y-48356255I-999955J-44D01*
G01*
X99489555Y-82656256D02*
X99489555Y-85656256D01*
X99489555Y-85656256D02*
G75*
G02*
X98489555Y-86656255I-999955J-44D01*
G01*
X158429573Y-141077090D02*
G75*
G02*
X154983954Y-142682641I-3445573J2894390D01*
G01*
X158429573Y-141077090D02*
X169450554Y-127957364D01*
X159989555Y-44356256D02*
G75*
G02*
X160989555Y-43356255I1000045J-44D01*
G01*
X159989555Y-47356256D02*
X159989555Y-44356256D01*
X159989555Y-82656256D02*
G75*
G02*
X160989555Y-81656255I1000045J-44D01*
G01*
X159989555Y-85656256D02*
X159989555Y-82656256D01*
X160989555Y-43356256D02*
X162189555Y-43356256D01*
X160989555Y-48356256D02*
G75*
G02*
X159989644Y-47356256I45J999956D01*
G01*
X160989555Y-81656256D02*
X163989555Y-81656256D01*
X160989555Y-86656256D02*
G75*
G02*
X159989644Y-85656256I45J999956D01*
G01*
X162189555Y-43356256D02*
G75*
G02*
X162489555Y-43372370I45J-2799744D01*
G01*
X162189555Y-86656256D02*
X160989555Y-86656256D01*
X162489555Y-43356256D02*
X163989555Y-43356256D01*
X162489555Y-43372374D02*
X162489555Y-43356256D01*
X162489555Y-86640138D02*
G75*
G02*
X162189555Y-86656253I-299955J2783538D01*
G01*
X162489555Y-86656256D02*
X162489555Y-86640138D01*
X163989555Y-43356256D02*
G75*
G02*
X164989644Y-44356256I45J-1000044D01*
G01*
X163989555Y-48356256D02*
X160989555Y-48356256D01*
X163989555Y-81656256D02*
G75*
G02*
X164989644Y-82656256I45J-1000044D01*
G01*
X163989555Y-86656256D02*
X162489555Y-86656256D01*
X164973437Y-45856256D02*
G75*
G02*
X164989557Y-46156256I-2784237J-300044D01*
G01*
X164973437Y-84156256D02*
X164989555Y-84156256D01*
X164989555Y-44356256D02*
X164989555Y-45856256D01*
X164989555Y-45856256D02*
X164973437Y-45856256D01*
X164989555Y-46156256D02*
X164989555Y-47356256D01*
X164989555Y-47356256D02*
G75*
G02*
X163989555Y-48356255I-999955J-44D01*
G01*
X164989555Y-82656256D02*
X164989555Y-83856256D01*
X164989555Y-83856256D02*
G75*
G02*
X164973433Y-84156256I-2800355J56D01*
G01*
X164989555Y-84156256D02*
X164989555Y-85656256D01*
X164989555Y-85656256D02*
G75*
G02*
X163989555Y-86656255I-999955J-44D01*
G01*
X166004935Y-35600000D02*
X94950000Y-35600000D01*
X166004935Y-35600000D02*
G75*
G02*
X170504900Y-40100000I-35J-4500000D01*
G01*
X167504935Y-40100000D02*
G75*
G02*
X164504935Y-40100000I-1500000J0D01*
G01*
X164504935Y-40100000D02*
G75*
G02*
X167504935Y-40100000I1500000J0D01*
G01*
X170504935Y-60236455D02*
X170504935Y-40100000D01*
X170504935Y-60236455D02*
X170504935Y-77236455D01*
X170504935Y-85090674D02*
X170504935Y-77236455D01*
X170504935Y-85090674D02*
X170504935Y-93382236D01*
X170504935Y-101236455D02*
X170504935Y-93382236D01*
X170504935Y-101236455D02*
X170504935Y-118236455D01*
X170504935Y-125062936D02*
G75*
G02*
X169450556Y-127957365I-4499835J-64D01*
G01*
X170504935Y-125062936D02*
X170504935Y-118236455D01*
M02*
